<svg width="440" height="100" viewBox="0 0 440 100" fill="none" xmlns="http://www.w3.org/2000/svg">
<g clip-path="url(#clip0_10_264)">
<rect width="440" height="100" rx="4" fill="url(#paint0_linear_10_264)"/>
<path d="M68 62C68.8125 62 69.5156 61.7109 70.1094 61.1328C70.7031 60.5391 71 59.8281 71 59V56C71 55.1875 70.7031 54.4844 70.1094 53.8906C69.5156 53.2969 68.8125 53 68 53H59V62H68ZM68 47C68.8125 47 69.5156 46.7109 70.1094 46.1328C70.7031 45.5391 71 44.8281 71 44V41C71 40.1875 70.7031 39.4844 70.1094 38.8906C69.5156 38.2969 68.8125 38 68 38H59V47H68ZM53 68V32H71L74 33.5L75.5 35L77 38V47C77 47.8438 76.7031 48.5547 76.1094 49.1328C75.5312 49.7109 74.8281 50 74 50C74.8281 50 75.5312 50.2969 76.1094 50.8906C76.7031 51.4688 77 52.1719 77 53V62L75.5 65L74 66.5L71 68H53Z" fill="white"/>
<path d="M80.48 68V44H86.48V47C86.48 46.1719 86.7691 45.4688 87.3472 44.8906C87.9253 44.2969 88.6362 44 89.48 44H98.48L101.48 45.5L102.98 47L104.48 50V53H98.48C98.48 52.1875 98.1831 51.4844 97.5894 50.8906C96.9956 50.2969 96.2925 50 95.48 50H89.48C88.6519 50 87.9409 50.2969 87.3472 50.8906C86.7691 51.4844 86.48 52.1875 86.48 53V68H80.48Z" fill="white"/>
<path d="M125.96 53C125.96 52.1875 125.663 51.4844 125.069 50.8906C124.476 50.2969 123.772 50 122.96 50H116.96C116.132 50 115.421 50.2969 114.827 50.8906C114.249 51.4844 113.96 52.1875 113.96 53H125.96ZM113.96 68L110.96 66.5L109.46 65L107.96 62V50L109.46 47L110.96 45.5L113.96 44H125.96L128.96 45.5L130.46 47L131.96 50V56C131.96 56.8438 131.663 57.5547 131.069 58.1328C130.491 58.7109 129.788 59 128.96 59H113.96C113.96 59.8281 114.249 60.5391 114.827 61.1328C115.421 61.7109 116.132 62 116.96 62H131.96V68H113.96Z" fill="white"/>
<path d="M150.44 62C151.253 62 151.956 61.7109 152.549 61.1328C153.143 60.5391 153.44 59.8281 153.44 59H142.94C142.518 59 142.159 59.1484 141.862 59.4453C141.581 59.7422 141.44 60.0938 141.44 60.5C141.44 60.9219 141.581 61.2812 141.862 61.5781C142.159 61.8594 142.518 62 142.94 62H150.44ZM141.44 68L138.44 66.5L136.94 65L135.44 62V59L136.94 56L138.44 54.5L141.44 53H153.44C153.44 52.1875 153.143 51.4844 152.549 50.8906C151.956 50.2969 151.253 50 150.44 50H138.44V44H153.44L156.44 45.5L157.94 47L159.44 50V68H153.44V65C153.44 65.8438 153.143 66.5547 152.549 67.1328C151.971 67.7109 151.268 68 150.44 68H141.44Z" fill="white"/>
<path d="M162.92 68V32H168.92V53H176.42L180.92 44H186.92L180.92 56L186.92 68H180.92L176.42 59H168.92V68H162.92Z" fill="white"/>
<path d="M190.4 68V32H214.4V38H196.4V47H208.4V53H196.4V68H190.4Z" fill="white"/>
<path d="M217.88 68V62H226.88V50H217.88V44H232.88V62H241.88V68H217.88ZM226.88 38V32H232.88V38H226.88Z" fill="white"/>
<path d="M245.36 68V44H251.36V47C251.36 46.1719 251.649 45.4688 252.227 44.8906C252.805 44.2969 253.516 44 254.36 44H263.36L266.36 45.5L267.86 47L269.36 50V53H263.36C263.36 52.1875 263.063 51.4844 262.469 50.8906C261.876 50.2969 261.173 50 260.36 50H254.36C253.532 50 252.821 50.2969 252.227 50.8906C251.649 51.4844 251.36 52.1875 251.36 53V68H245.36Z" fill="white"/>
<path d="M278.84 68L275.84 66.5L274.34 65L272.84 62V59H278.84C278.84 59.8281 279.129 60.5391 279.707 61.1328C280.301 61.7109 281.012 62 281.84 62H287.84C288.512 62 289.106 61.8047 289.621 61.4141L272.84 53V50L274.34 47L275.84 45.5L278.84 44H290.84L293.84 45.5L295.34 47L296.84 50V53H290.84C290.84 52.1875 290.543 51.4844 289.949 50.8906C289.356 50.2969 288.652 50 287.84 50H281.84C281.152 50 280.551 50.2031 280.035 50.6094L296.84 59V62L295.34 65L293.84 66.5L290.84 68H278.84Z" fill="white"/>
<path d="M309.32 68L306.32 66.5L304.82 65L303.32 62V50H300.32V44H303.32V32H309.32V44H321.32V50H309.32V59C309.32 59.8281 309.609 60.5391 310.187 61.1328C310.781 61.7109 311.492 62 312.32 62H324.32V68H309.32Z" fill="white"/>
<path d="M366.752 54.5796L378.065 54.3364V54.3364C378.119 54.3352 378.171 54.3578 378.207 54.3981L378.208 54.3994L382.173 58.8257C383.008 59.7577 384.231 60.2452 385.478 60.1434L396.036 59.2813V59.2813C396.108 59.2756 396.179 59.295 396.237 59.3364L401.508 63.0549C401.513 63.0586 401.518 63.0629 401.523 63.0676V63.0676C401.597 63.1472 401.724 63.0568 401.673 62.9605L398.236 56.4414C398.015 56.0218 397.545 55.7968 397.079 55.8879L391.503 56.9785L384.832 58.2767V58.2767C384.683 58.3055 384.529 58.2624 384.417 58.1604L384.415 58.1583L379.636 53.8155C379.01 53.2463 378.219 52.8904 377.378 52.799L363.953 51.3416V51.3416C363.602 51.3036 363.38 50.9439 363.498 50.6113V50.6113L365.268 45.6416V45.6416C365.33 45.4665 365.478 45.3334 365.658 45.2876V45.2876L373.41 43.3321C374.099 43.1583 374.656 42.6537 374.898 41.9856L375.853 39.3367C375.891 39.233 375.814 39.1235 375.704 39.1235V39.1235C375.653 39.1235 375.605 39.1478 375.575 39.1888L373.347 42.241C373.246 42.3792 373.086 42.4608 372.915 42.4608V42.4608L365.894 42.4485C364.837 42.4466 363.822 42.8632 363.071 43.6072L359.574 47.0728V47.0728C359.26 47.384 358.723 47.2105 358.655 46.7736V46.7736L356.905 35.597L356.904 35.5925C356.888 35.4899 356.905 35.3848 356.951 35.2921V35.2921L360.589 28.092C360.94 27.3979 361.081 26.6167 360.994 25.8439L359.869 15.773C359.757 14.7726 360.156 13.783 360.93 13.1394L361.966 12.2776C361.994 12.255 362.009 12.2216 362.009 12.1864V12.1864C362.009 12.0996 361.919 12.0422 361.84 12.0789L358.723 13.537C357.861 13.9397 357.335 14.8291 357.397 15.7777L358.119 26.9073L358.119 26.911C358.12 26.9354 358.116 26.9598 358.107 26.9824V26.9824L354.65 35.3524C354.472 35.7834 354.371 36.2422 354.351 36.7081L354.148 41.4282L353.903 46.8601V46.8601C353.899 46.9626 353.813 47.0425 353.71 47.0398L353.707 47.0397L334.279 46.3726C334.2 46.3699 334.168 46.4728 334.234 46.5161V46.5161C334.239 46.5196 334.245 46.5225 334.251 46.5246L342.727 49.4399L353.485 53.1599V53.1599C353.638 53.2132 353.752 53.3429 353.785 53.5016L356.86 68.2696V68.2696C356.876 68.3477 356.873 68.4287 356.851 68.5052V68.5052L355.322 73.7251L354.026 78.1205C353.883 78.6039 353.833 79.1099 353.878 79.6119L354.568 87.2425C354.569 87.254 354.571 87.2654 354.574 87.2765V87.2765C354.631 87.4849 354.934 87.4601 354.956 87.2452L355.741 79.6989L355.742 79.6943C355.745 79.6644 355.753 79.6353 355.765 79.6079V79.6079L359.891 70.2106C360.159 69.6007 360.271 68.9336 360.215 68.2698L359.669 61.7299L359.016 54.1218V54.1218C359.008 54.0198 359.093 53.9337 359.195 53.9423V53.9423L366.752 54.5796Z" fill="white"/>
</g>
<defs>
<linearGradient id="paint0_linear_10_264" x1="2.44128e-06" y1="7.5" x2="440" y2="100" gradientUnits="userSpaceOnUse">
<stop stop-color="#E6B73F"/>
<stop offset="0.375" stop-color="#FF4DE5"/>
<stop offset="0.713542" stop-color="#813DFF"/>
<stop offset="1" stop-color="#1C89FF"/>
</linearGradient>
<clipPath id="clip0_10_264">
<rect width="440" height="100" fill="white"/>
</clipPath>
</defs>
</svg>
