<svg width="176" height="40" viewBox="0 0 176 40" fill="none" xmlns="http://www.w3.org/2000/svg">
<rect width="175.833" height="40" rx="4" fill="url(#paint0_linear_741_1419)"/>
<path d="M27.174 24.8001C27.4987 24.8001 27.7797 24.6845 28.017 24.4532C28.2542 24.2157 28.3729 23.9313 28.3729 23.6001V22.4001C28.3729 22.0751 28.2542 21.7938 28.017 21.5563C27.7797 21.3188 27.4987 21.2001 27.174 21.2001H23.5774V24.8001H27.174ZM27.174 18.8001C27.4987 18.8001 27.7797 18.6845 28.017 18.4532C28.2542 18.2157 28.3729 17.9313 28.3729 17.6001V16.4001C28.3729 16.0751 28.2542 15.7938 28.017 15.5563C27.7797 15.3188 27.4987 15.2001 27.174 15.2001H23.5774V18.8001H27.174ZM21.1797 27.2001V12.8001H28.3729L29.5717 13.4001L30.1712 14.0001L30.7706 15.2001V18.8001C30.7706 19.1376 30.652 19.422 30.4147 19.6532C30.1837 19.8845 29.9027 20.0001 29.5717 20.0001C29.9027 20.0001 30.1837 20.1188 30.4147 20.3563C30.652 20.5876 30.7706 20.8688 30.7706 21.2001V24.8001L30.1712 26.0001L29.5717 26.6001L28.3729 27.2001H21.1797Z" fill="white"/>
<path d="M32.1613 27.2001V17.6001H34.559V18.8001C34.559 18.4688 34.6745 18.1876 34.9056 17.9563C35.1366 17.7188 35.4207 17.6001 35.7579 17.6001H39.3545L40.5533 18.2001L41.1528 18.8001L41.7522 20.0001V21.2001H39.3545C39.3545 20.8751 39.2358 20.5938 38.9985 20.3563C38.7613 20.1188 38.4803 20.0001 38.1556 20.0001H35.7579C35.4269 20.0001 35.1428 20.1188 34.9056 20.3563C34.6745 20.5938 34.559 20.8751 34.559 21.2001V27.2001H32.1613Z" fill="white"/>
<path d="M50.336 21.2001C50.336 20.8751 50.2174 20.5938 49.9801 20.3563C49.7429 20.1188 49.4619 20.0001 49.1372 20.0001H46.7395C46.4085 20.0001 46.1244 20.1188 45.8871 20.3563C45.6561 20.5938 45.5406 20.8751 45.5406 21.2001H50.336ZM45.5406 27.2001L44.3417 26.6001L43.7423 26.0001L43.1429 24.8001V20.0001L43.7423 18.8001L44.3417 18.2001L45.5406 17.6001H50.336L51.5349 18.2001L52.1343 18.8001L52.7338 20.0001V22.4001C52.7338 22.7376 52.6151 23.022 52.3779 23.2532C52.1468 23.4845 51.8658 23.6001 51.5349 23.6001H45.5406C45.5406 23.9313 45.6561 24.2157 45.8871 24.4532C46.1244 24.6845 46.4085 24.8001 46.7395 24.8001H52.7338V27.2001H45.5406Z" fill="white"/>
<path d="M60.1188 24.8001C60.4435 24.8001 60.7244 24.6845 60.9617 24.4532C61.199 24.2157 61.3176 23.9313 61.3176 23.6001H57.1216C56.953 23.6001 56.8094 23.6595 56.6908 23.7782C56.5784 23.897 56.5222 24.0376 56.5222 24.2001C56.5222 24.3688 56.5784 24.5126 56.6908 24.6313C56.8094 24.7438 56.953 24.8001 57.1216 24.8001H60.1188ZM56.5222 27.2001L55.3233 26.6001L54.7239 26.0001L54.1245 24.8001V23.6001L54.7239 22.4001L55.3233 21.8001L56.5222 21.2001H61.3176C61.3176 20.8751 61.199 20.5938 60.9617 20.3563C60.7244 20.1188 60.4435 20.0001 60.1188 20.0001H55.3233V17.6001H61.3176L62.5165 18.2001L63.1159 18.8001L63.7154 20.0001V27.2001H61.3176V26.0001C61.3176 26.3376 61.199 26.622 60.9617 26.8532C60.7307 27.0845 60.4497 27.2001 60.1188 27.2001H56.5222Z" fill="white"/>
<path d="M65.106 27.2001V12.8001H67.5038V21.2001H70.5009L72.2992 17.6001H74.697L72.2992 22.4001L74.697 27.2001H72.2992L70.5009 23.6001H67.5038V27.2001H65.106Z" fill="white"/>
<path d="M76.0876 27.2001V12.8001H85.6785V15.2001H78.4854V18.8001H83.2808V21.2001H78.4854V27.2001H76.0876Z" fill="white"/>
<path d="M87.0692 27.2001V24.8001H90.6658V20.0001H87.0692V17.6001H93.0635V24.8001H96.6601V27.2001H87.0692ZM90.6658 15.2001V12.8001H93.0635V15.2001H90.6658Z" fill="white"/>
<path d="M98.0508 27.2001V17.6001H100.449V18.8001C100.449 18.4688 100.564 18.1876 100.795 17.9563C101.026 17.7188 101.31 17.6001 101.647 17.6001H105.244L106.443 18.2001L107.042 18.8001L107.642 20.0001V21.2001H105.244C105.244 20.8751 105.125 20.5938 104.888 20.3563C104.651 20.1188 104.37 20.0001 104.045 20.0001H101.647C101.316 20.0001 101.032 20.1188 100.795 20.3563C100.564 20.5938 100.449 20.8751 100.449 21.2001V27.2001H98.0508Z" fill="white"/>
<path d="M111.43 27.2001L110.231 26.6001L109.632 26.0001L109.032 24.8001V23.6001H111.43C111.43 23.9313 111.546 24.2157 111.777 24.4532C112.014 24.6845 112.298 24.8001 112.629 24.8001H115.027C115.295 24.8001 115.532 24.722 115.739 24.5657L109.032 21.2001V20.0001L109.632 18.8001L110.231 18.2001L111.43 17.6001H116.226L117.424 18.2001L118.024 18.8001L118.623 20.0001V21.2001H116.226C116.226 20.8751 116.107 20.5938 115.87 20.3563C115.632 20.1188 115.351 20.0001 115.027 20.0001H112.629C112.354 20.0001 112.114 20.0813 111.908 20.2438L118.623 23.6001V24.8001L118.024 26.0001L117.424 26.6001L116.226 27.2001H111.43Z" fill="white"/>
<path d="M123.611 27.2001L122.412 26.6001L121.812 26.0001L121.213 24.8001V20.0001H120.014V17.6001H121.213V12.8001H123.611V17.6001H128.406V20.0001H123.611V23.6001C123.611 23.9313 123.726 24.2157 123.957 24.4532C124.194 24.6845 124.479 24.8001 124.809 24.8001H129.605V27.2001H123.611Z" fill="white"/>
<path d="M146.562 21.8319L151.082 21.7347C151.104 21.7342 151.125 21.7432 151.139 21.7593L151.14 21.7599L152.724 23.5304C153.058 23.9032 153.547 24.0982 154.045 24.0575L158.264 23.7126C158.293 23.7103 158.321 23.7181 158.345 23.7346L160.451 25.2221C160.453 25.2235 160.455 25.2252 160.457 25.2271C160.486 25.259 160.537 25.2228 160.517 25.1843L159.143 22.5766C159.055 22.4088 158.867 22.3188 158.681 22.3553L153.787 23.3108C153.727 23.3223 153.666 23.3051 153.621 23.2642L151.711 21.5263C151.46 21.2986 151.144 21.1562 150.808 21.1197L145.443 20.5367C145.303 20.5215 145.214 20.3777 145.261 20.2446L145.969 18.2567C145.993 18.1867 146.053 18.1334 146.125 18.1151L149.222 17.3329C149.498 17.2634 149.72 17.0616 149.817 16.7943L150.199 15.7348C150.214 15.6933 150.183 15.6495 150.139 15.6495C150.119 15.6495 150.099 15.6592 150.088 15.6756L149.197 16.8965C149.157 16.9518 149.093 16.9844 149.024 16.9844L146.219 16.9795C145.796 16.9787 145.391 17.1454 145.091 17.443L143.693 18.8292C143.568 18.9537 143.353 18.8843 143.326 18.7095L142.626 14.2371C142.62 14.196 142.626 14.154 142.645 14.1169L144.099 11.2369C144.239 10.9593 144.295 10.6468 144.261 10.3376L143.811 6.30929C143.766 5.90912 143.926 5.51328 144.235 5.25586L144.649 4.91111C144.66 4.9021 144.666 4.88874 144.666 4.87464C144.666 4.83992 144.63 4.81696 144.599 4.83167L143.353 5.41489C143.009 5.57597 142.798 5.93173 142.823 6.31119L143.112 10.763L143.112 10.7645C143.112 10.7743 143.111 10.784 143.107 10.7931L141.725 14.1411C141.654 14.3134 141.614 14.497 141.606 14.6833L141.525 16.5714L141.427 18.7441C141.425 18.7851 141.391 18.8171 141.35 18.816L141.348 18.816L133.585 18.5491C133.553 18.548 133.54 18.5892 133.567 18.6065C133.569 18.6079 133.571 18.6091 133.574 18.6099L136.961 19.776L141.26 21.264C141.321 21.2854 141.366 21.3372 141.38 21.4007L142.609 27.3079C142.615 27.3392 142.614 27.3716 142.605 27.4022L141.994 29.4901L141.476 31.2483C141.419 31.4417 141.399 31.6441 141.417 31.8448L141.693 34.8971C141.693 34.9017 141.694 34.9062 141.695 34.9107C141.718 34.994 141.839 34.9841 141.848 34.8982L142.162 31.8797L142.162 31.8778C142.163 31.8659 142.166 31.8542 142.171 31.8432L143.82 28.0843C143.927 27.8404 143.971 27.5735 143.949 27.308L143.731 24.6921L143.47 21.6488C143.467 21.608 143.501 21.5736 143.542 21.577L146.562 21.8319Z" fill="white"/>
<defs>
<linearGradient id="paint0_linear_741_1419" x1="9.75586e-07" y1="3" x2="175.847" y2="39.9329" gradientUnits="userSpaceOnUse">
<stop stop-color="#E6B73F"/>
<stop offset="0.375" stop-color="#FF4DE5"/>
<stop offset="0.713542" stop-color="#813DFF"/>
<stop offset="1" stop-color="#1C89FF"/>
</linearGradient>
</defs>
</svg>
