<svg width="317" height="42" viewBox="0 0 317 42" fill="none" xmlns="http://www.w3.org/2000/svg">
<path d="M17.5 35C18.4479 35 19.2682 34.6628 19.9609 33.9883C20.6536 33.2956 21 32.4661 21 31.5V28C21 27.0521 20.6536 26.2318 19.9609 25.5391C19.2682 24.8464 18.4479 24.5 17.5 24.5H7V35H17.5ZM17.5 17.5C18.4479 17.5 19.2682 17.1628 19.9609 16.4883C20.6536 15.7956 21 14.9661 21 14V10.5C21 9.55208 20.6536 8.73177 19.9609 8.03906C19.2682 7.34635 18.4479 7 17.5 7H7V17.5H17.5ZM0 42V0H21L24.5 1.75L26.25 3.5L28 7V17.5C28 18.4844 27.6536 19.3138 26.9609 19.9883C26.2865 20.6628 25.4661 21 24.5 21C25.4661 21 26.2865 21.3464 26.9609 22.0391C27.6536 22.7135 28 23.5339 28 24.5V35L26.25 38.5L24.5 40.25L21 42H0ZM32.06 42V14H39.06V17.5C39.06 16.5339 39.3972 15.7135 40.0717 15.0391C40.7462 14.3464 41.5756 14 42.56 14H53.06L56.56 15.75L58.31 17.5L60.06 21V24.5H53.06C53.06 23.5521 52.7136 22.7318 52.0209 22.0391C51.3282 21.3464 50.5079 21 49.56 21H42.56C41.5939 21 40.7644 21.3464 40.0717 22.0391C39.3972 22.7318 39.06 23.5521 39.06 24.5V42H32.06ZM85.12 24.5C85.12 23.5521 84.7736 22.7318 84.0809 22.0391C83.3882 21.3464 82.5679 21 81.62 21H74.62C73.6539 21 72.8244 21.3464 72.1317 22.0391C71.4572 22.7318 71.12 23.5521 71.12 24.5H85.12ZM71.12 42L67.62 40.25L65.87 38.5L64.12 35V21L65.87 17.5L67.62 15.75L71.12 14H85.12L88.62 15.75L90.37 17.5L92.12 21V28C92.12 28.9844 91.7736 29.8138 91.0809 30.4883C90.4065 31.1628 89.5861 31.5 88.62 31.5H71.12C71.12 32.4661 71.4572 33.2956 72.1317 33.9883C72.8244 34.6628 73.6539 35 74.62 35H92.12V42H71.12ZM113.68 35C114.628 35 115.448 34.6628 116.141 33.9883C116.834 33.2956 117.18 32.4661 117.18 31.5H104.93C104.438 31.5 104.019 31.6732 103.672 32.0195C103.344 32.3659 103.18 32.776 103.18 33.25C103.18 33.7422 103.344 34.1615 103.672 34.5078C104.019 34.8359 104.438 35 104.93 35H113.68ZM103.18 42L99.68 40.25L97.93 38.5L96.18 35V31.5L97.93 28L99.68 26.25L103.18 24.5H117.18C117.18 23.5521 116.834 22.7318 116.141 22.0391C115.448 21.3464 114.628 21 113.68 21H99.68V14H117.18L120.68 15.75L122.43 17.5L124.18 21V42H117.18V38.5C117.18 39.4844 116.834 40.3138 116.141 40.9883C115.466 41.6628 114.646 42 113.68 42H103.18ZM128.24 42V0H135.24V24.5H143.99L149.24 14H156.24L149.24 28L156.24 42H149.24L143.99 31.5H135.24V42H128.24ZM160.3 42V0H188.3V7H167.3V17.5H181.3V24.5H167.3V42H160.3ZM192.36 42V35H202.86V21H192.36V14H209.86V35H220.36V42H192.36ZM202.86 7V0H209.86V7H202.86ZM224.42 42V14H231.42V17.5C231.42 16.5339 231.757 15.7135 232.432 15.0391C233.106 14.3464 233.936 14 234.92 14H245.42L248.92 15.75L250.67 17.5L252.42 21V24.5H245.42C245.42 23.5521 245.074 22.7318 244.381 22.0391C243.688 21.3464 242.868 21 241.92 21H234.92C233.954 21 233.124 21.3464 232.432 22.0391C231.757 22.7318 231.42 23.5521 231.42 24.5V42H224.42ZM263.48 42L259.98 40.25L258.23 38.5L256.48 35V31.5H263.48C263.48 32.4661 263.817 33.2956 264.492 33.9883C265.184 34.6628 266.014 35 266.98 35H273.98C274.764 35 275.457 34.7721 276.058 34.3164L256.48 24.5V21L258.23 17.5L259.98 15.75L263.48 14H277.48L280.98 15.75L282.73 17.5L284.48 21V24.5H277.48C277.48 23.5521 277.134 22.7318 276.441 22.0391C275.748 21.3464 274.928 21 273.98 21H266.98C266.178 21 265.476 21.237 264.875 21.7109L284.48 31.5V35L282.73 38.5L280.98 40.25L277.48 42H263.48ZM299.04 42L295.54 40.25L293.79 38.5L292.04 35V21H288.54V14H292.04V0H299.04V14H313.04V21H299.04V31.5C299.04 32.4661 299.377 33.2956 300.052 33.9883C300.744 34.6628 301.574 35 302.54 35H316.54V42H299.04Z" fill="white"/>
</svg>
