<svg width="162" height="25" viewBox="0 0 162 25" fill="none" xmlns="http://www.w3.org/2000/svg">
<g clip-path="url(#clip0_765_1178)">
<path fill-rule="evenodd" clip-rule="evenodd" d="M19.9992 13.5815L28.4932 22.374C28.5951 22.4782 28.6764 22.6019 28.7321 22.7385C28.7878 22.875 28.817 23.0216 28.818 23.1699C28.819 23.3181 28.7918 23.4651 28.7378 23.6025C28.684 23.7398 28.6044 23.8648 28.5039 23.9703L27.8806 24.6132C27.7054 24.8033 27.474 24.9273 27.2232 24.9657C27.0574 24.9886 26.8887 24.9715 26.7305 24.9158C26.5723 24.86 26.4286 24.7671 26.3108 24.6443L15.9386 13.9074C15.7581 13.721 15.6151 13.4997 15.5175 13.2561C15.4198 13.0124 15.3696 12.7512 15.3696 12.4874C15.3696 12.2236 15.4198 11.9624 15.5175 11.7188C15.6151 11.4751 15.7581 11.2538 15.9386 11.0674L26.3108 0.330506C26.4118 0.225733 26.5318 0.142609 26.664 0.0858977C26.7961 0.0291855 26.9377 0 27.0807 0C27.2237 0 27.3653 0.0291855 27.4974 0.0858977C27.6295 0.142609 27.7495 0.225733 27.8507 0.330506L28.4932 1.00669C28.5943 1.11129 28.6746 1.23552 28.7294 1.37228C28.7843 1.50904 28.8125 1.65563 28.8125 1.80369C28.8125 1.95174 28.7843 2.09834 28.7294 2.2351C28.6746 2.37186 28.5943 2.4961 28.4932 2.60071L19.9992 11.3955C19.7206 11.6862 19.5643 12.0791 19.5643 12.4886C19.5643 12.8979 19.7206 13.2908 19.9992 13.5815ZM8.81847 11.4048L0.327779 2.60994C0.224751 2.50575 0.142724 2.38144 0.0864603 2.24417C0.0301959 2.10692 0.000813281 1.95945 1.66445e-05 1.81033C-0.000779991 1.66123 0.0270272 1.51342 0.0818216 1.37552C0.136617 1.23763 0.217312 1.11238 0.319219 1.00703L0.940072 0.36187C1.11687 0.173057 1.34842 0.0492764 1.59946 0.00937134C1.76509 -0.0128503 1.93345 0.00457311 2.09156 0.0603044C2.24967 0.116036 2.39333 0.208579 2.51147 0.330828L12.8797 11.0679C13.06 11.2542 13.203 11.4756 13.3006 11.7192C13.3982 11.9629 13.4484 12.2241 13.4484 12.4879C13.4484 12.7517 13.3982 13.0128 13.3006 13.2566C13.203 13.5002 13.06 13.7215 12.8797 13.9079L2.51147 24.6449C2.41027 24.7497 2.29013 24.8329 2.15788 24.8897C2.02563 24.9464 1.8839 24.9756 1.74075 24.9756C1.59761 24.9756 1.45587 24.9464 1.32363 24.8897C1.19139 24.8329 1.07124 24.7497 0.97004 24.6449L0.327779 23.9798C0.226538 23.8751 0.146226 23.7506 0.0914323 23.6137C0.0366382 23.4767 0.00843822 23.3298 0.00843822 23.1816C0.00843822 23.0334 0.0366382 22.8867 0.0914323 22.7497C0.146226 22.6128 0.226538 22.4883 0.327779 22.3835L8.81847 13.5909C9.09694 13.3001 9.2532 12.9073 9.2532 12.4978C9.2532 12.0884 9.09694 11.6955 8.81847 11.4048Z" fill="white"/>
<path fill-rule="evenodd" clip-rule="evenodd" d="M64.0098 10.8248C63.3733 10.4092 62.6277 10.1926 61.8677 10.2023C61.2477 10.1924 60.6356 10.3438 60.0918 10.6417C59.7449 10.8254 59.4347 11.0711 59.1763 11.3666V5.99133H57.1624V19.1734H59.1763V18.2156C59.4317 18.5054 59.7353 18.749 60.0734 18.9354C60.6271 19.2231 61.2439 19.3679 61.8677 19.3566C62.6252 19.3669 63.3693 19.157 64.0098 18.7524C64.6522 18.3541 65.1768 17.7915 65.5294 17.1229C65.9122 16.4084 66.1075 15.6083 66.0969 14.7977C66.1104 13.9869 65.915 13.186 65.5294 12.4726C65.1809 11.7962 64.6558 11.2268 64.0098 10.8248ZM63.6985 16.1709C63.4996 16.5636 63.1954 16.8933 62.8197 17.1229C62.4313 17.3497 61.9878 17.4649 61.5381 17.4559C61.0828 17.4635 60.6339 17.3485 60.2383 17.1229C59.8623 16.8938 59.5578 16.564 59.3594 16.1709C59.145 15.7389 59.0382 15.2616 59.0482 14.7795C59.0382 14.2973 59.145 13.8199 59.3594 13.388C59.5549 12.9976 59.8604 12.673 60.2383 12.4543C60.6301 12.2184 61.0807 12.0978 61.5381 12.1064C61.9899 12.0963 62.435 12.2171 62.8197 12.4543C63.1971 12.6735 63.5025 12.998 63.6985 13.388C63.9257 13.8161 64.0402 14.295 64.0314 14.7795C64.0402 15.264 63.9257 15.7428 63.6985 16.1709ZM42.161 17.343C42.9422 17.343 43.6013 17.2271 44.1384 16.9952C44.6651 16.7657 45.138 16.4283 45.5265 16.0048L46.9546 17.4329C46.3641 18.0341 45.6611 18.5131 44.8856 18.8426C44.0923 19.1844 43.183 19.3553 42.1577 19.3553C41.2735 19.3635 40.3965 19.1954 39.5778 18.861C38.8054 18.5302 38.1065 18.0492 37.5218 17.4456C36.9373 16.8421 36.4785 16.1283 36.1725 15.3457C35.8523 14.5236 35.6907 13.6482 35.6965 12.7658C35.6899 11.8888 35.8521 11.0186 36.1741 10.2027C36.4785 9.4167 36.9388 8.70047 37.5273 8.09721C38.1285 7.47867 38.8494 6.98918 39.6461 6.65866C40.4428 6.32813 41.2986 6.16349 42.161 6.1748C43.199 6.17425 44.0957 6.34625 44.8508 6.69077C45.6014 7.02715 46.2844 7.49755 46.8663 8.07889L45.4383 9.50696C45.051 9.08576 44.5759 8.75455 44.0468 8.53661C43.5109 8.30471 42.8823 8.18875 42.161 8.18875C41.5649 8.18238 40.9735 8.29557 40.4217 8.52164C39.9019 8.73679 39.4337 9.0602 39.0486 9.47035C38.6613 9.88815 38.363 10.3802 38.1714 10.9167C37.9586 11.5097 37.8533 12.1359 37.8602 12.7658C37.8531 13.3947 37.958 14.0197 38.1698 14.6118C38.3645 15.1525 38.663 15.6501 39.0486 16.0765C39.4376 16.4783 39.905 16.7961 40.4217 17.0102C40.9735 17.2362 41.5649 17.3494 42.161 17.343ZM49.2007 10.3852L51.4517 16.1108L53.8328 10.3852H56.0663L51.9836 19.2649L50.354 22.835H48.1205L50.3266 18.2896L46.9853 10.3852H49.2007ZM71.7518 10.2007C72.5717 10.2001 73.293 10.3893 73.9155 10.7682C74.5412 11.1401 75.052 11.6774 75.3918 12.3211C75.7659 13.0118 75.955 13.7876 75.9411 14.5731C75.9408 14.7264 75.9286 14.8794 75.9045 15.0307C75.8896 15.1968 75.8653 15.3619 75.8312 15.5251H69.2759C69.3283 15.7479 69.4086 15.9632 69.5147 16.1659C69.7262 16.5724 70.0504 16.9093 70.4485 17.1363C70.8766 17.3633 71.3554 17.4779 71.8399 17.4691C72.2678 17.4746 72.6924 17.3937 73.0882 17.2311C73.4681 17.0805 73.8069 16.8421 74.0769 16.5354L75.3585 17.8354C74.9372 18.3318 74.4037 18.7208 73.8023 18.9704C73.1877 19.2278 72.5278 19.3585 71.8615 19.3549C71.0315 19.3678 70.2119 19.1672 69.4815 18.7723C68.7773 18.374 68.1944 17.792 67.7946 17.0886C67.3949 16.3853 67.1932 15.5867 67.2112 14.7777C67.2018 14.1772 67.3127 13.5809 67.5371 13.0237C67.7615 12.4666 68.095 11.9599 68.5181 11.5335C68.941 11.1071 69.445 10.7695 70.0004 10.5406C70.5557 10.3117 71.1511 10.1962 71.7518 10.2007ZM70.3836 12.3794C70.0062 12.5986 69.7008 12.9232 69.5047 13.3132L69.5031 13.3148C69.4097 13.493 69.3381 13.6819 69.2901 13.8774H73.9662C73.9193 13.6364 73.8412 13.4025 73.7341 13.1817C73.5626 12.8279 73.2881 12.5343 72.9467 12.3394C72.6178 12.1441 72.209 12.0465 71.7201 12.0465C71.2529 12.0361 70.7913 12.151 70.3836 12.3794ZM83.055 10.4408C82.6797 10.2776 82.274 10.1964 81.8649 10.2027C80.8662 10.2027 80.1156 10.5506 79.613 11.2463C79.6051 11.2573 79.5976 11.2685 79.59 11.2799L79.5763 11.3004V10.385H77.5623V19.1739H79.5763V14.2856C79.5763 13.5288 79.7595 12.974 80.1256 12.6211C80.4917 12.2683 80.9555 12.0913 81.517 12.0902C81.7476 12.0858 81.977 12.1231 82.1945 12.2C82.3978 12.2786 82.5797 12.4041 82.7254 12.5663L84.0478 11.2097C83.7778 10.8831 83.4387 10.6205 83.055 10.4408ZM91.4368 17.343C92.2185 17.343 92.8776 17.2271 93.4141 16.9952C93.9416 16.7658 94.415 16.4284 94.804 16.0048L96.232 17.4329C95.6416 18.0339 94.9386 18.513 94.1631 18.8426C93.3698 19.1844 92.4604 19.3553 91.4352 19.3553C90.5509 19.3635 89.6739 19.1954 88.8553 18.861C88.083 18.5302 87.384 18.049 86.7993 17.4456C86.2148 16.8421 85.756 16.1283 85.4499 15.3457C85.1297 14.5235 84.9682 13.6482 84.974 12.7658C84.9669 11.8889 85.1285 11.0187 85.4499 10.2027C85.7547 9.41654 86.2156 8.7003 86.8048 8.09719C87.4057 7.47886 88.1264 6.98948 88.9229 6.65897C89.7192 6.32844 90.5746 6.1637 91.4368 6.17479C92.4743 6.17423 93.3714 6.34622 94.1282 6.69076C94.8783 7.0273 95.5608 7.49769 96.1422 8.07888L94.7141 9.50695C94.3267 9.08574 93.8518 8.75452 93.3226 8.5366C92.7867 8.30469 92.1581 8.18872 91.4368 8.18872C90.8406 8.18236 90.2492 8.29555 89.6975 8.52161C89.1776 8.73676 88.7096 9.06019 88.3245 9.47034C87.9366 9.88799 87.6376 10.3801 87.4456 10.9167C87.2328 11.5097 87.1274 12.1359 87.1344 12.7658C87.1278 13.3947 87.2332 14.0197 87.4456 14.6117C87.6403 15.1525 87.9388 15.6501 88.3245 16.0763C88.7135 16.4783 89.1808 16.7961 89.6975 17.0102C90.2492 17.2362 90.8406 17.3494 91.4368 17.343ZM103.959 10.8071C103.246 10.3997 102.437 10.1911 101.616 10.2029C100.798 10.1928 99.9936 10.4082 99.2904 10.8254C98.6059 11.2179 98.033 11.7788 97.626 12.4548C97.2179 13.1549 97.0085 13.953 97.0201 14.7634C97.0099 15.5786 97.2185 16.3815 97.6244 17.0886C98.0301 17.7747 98.6027 18.3471 99.2888 18.753C99.8119 19.0618 100.391 19.2637 100.993 19.3472C101.595 19.4306 102.207 19.3939 102.794 19.2391C103.382 19.0843 103.933 18.8145 104.415 18.4454C104.898 18.0763 105.302 17.6151 105.605 17.0886C106.023 16.3854 106.238 15.581 106.229 14.7634C106.241 13.9514 106.025 13.1525 105.607 12.4565C105.214 11.7699 104.645 11.2006 103.959 10.8071ZM103.831 16.1332C103.629 16.5297 103.318 16.8601 102.934 17.0852C102.532 17.312 102.077 17.427 101.616 17.4182C101.155 17.4242 100.7 17.3094 100.297 17.0852C99.919 16.8532 99.6093 16.5247 99.4003 16.1332C99.1871 15.7073 99.0803 15.2362 99.089 14.76C99.0788 14.2896 99.1857 13.824 99.4003 13.4052C99.6106 13.0242 99.9206 12.7078 100.297 12.4897C100.697 12.2553 101.153 12.135 101.616 12.1419C102.079 12.1319 102.536 12.2525 102.934 12.4897C103.31 12.708 103.62 13.0243 103.831 13.4052C104.058 13.8202 104.173 14.2871 104.164 14.76C104.171 15.2392 104.057 15.7123 103.831 16.1348V16.1332ZM112.536 10.2028C113.16 10.1924 113.773 10.3712 114.293 10.7155C114.802 11.0389 115.219 11.487 115.505 12.017C115.789 12.5191 115.938 13.0863 115.938 13.6632V19.1741H113.924V14.1025C113.924 13.5172 113.736 13.0351 113.36 12.6562C112.994 12.2778 112.518 12.0886 111.932 12.0886C111.568 12.0823 111.208 12.1706 110.888 12.3449C110.588 12.5113 110.34 12.7587 110.174 13.0589C110 13.3787 109.911 13.7384 109.918 14.1025V19.1741H107.904V10.3859H109.918V11.3804C110.159 11.0906 110.45 10.8467 110.778 10.6605C111.312 10.3529 111.92 10.1948 112.536 10.2028ZM124.377 10.7155C123.857 10.3712 123.243 10.1924 122.619 10.2028C122.003 10.1948 121.397 10.3529 120.862 10.6605C120.534 10.8465 120.241 11.0904 119.999 11.3804V10.3859H117.985V19.1741H119.999V14.1025C119.993 13.7384 120.082 13.3787 120.255 13.0589C120.421 12.7587 120.67 12.5113 120.969 12.3449C121.289 12.1706 121.649 12.0823 122.013 12.0886C122.599 12.0886 123.075 12.2778 123.441 12.6562C123.82 13.0346 124.009 13.5167 124.009 14.1025V19.1741H126.022V13.6632C126.021 13.0851 125.87 12.5173 125.584 12.0154C125.298 11.4866 124.883 11.0392 124.377 10.7155ZM132.042 10.2007C132.862 10.2001 133.583 10.3893 134.205 10.7682C134.831 11.1405 135.342 11.6778 135.683 12.3211C136.056 13.0118 136.246 13.7876 136.231 14.5731C136.231 14.7263 136.218 14.8794 136.195 15.0307C136.18 15.1968 136.155 15.3618 136.121 15.5251H129.566C129.618 15.7479 129.698 15.9632 129.805 16.1659C130.017 16.5724 130.34 16.9093 130.739 17.1363C131.167 17.3633 131.645 17.478 132.13 17.4691C132.558 17.4745 132.983 17.3936 133.379 17.2311C133.758 17.08 134.097 16.8417 134.368 16.5354L135.649 17.8354C135.227 18.3314 134.694 18.7204 134.093 18.9704C133.478 19.2275 132.818 19.3583 132.152 19.3549C131.322 19.3679 130.503 19.1673 129.772 18.7723C129.068 18.374 128.485 17.792 128.085 17.0886C127.685 16.3853 127.483 15.5867 127.502 14.7777C127.492 14.1772 127.603 13.5809 127.828 13.0237C128.051 12.4666 128.385 11.9599 128.808 11.5335C129.231 11.1071 129.735 10.7695 130.29 10.5406C130.846 10.3117 131.442 10.1962 132.042 10.2007ZM130.674 12.3794C130.297 12.5981 129.991 12.9228 129.795 13.3132L129.793 13.3148C129.7 13.4929 129.628 13.6818 129.581 13.8774H134.255C134.209 13.6364 134.132 13.4023 134.024 13.1817C133.853 12.828 133.578 12.5346 133.237 12.3394C132.907 12.1441 132.498 12.0465 132.01 12.0465C131.543 12.0359 131.082 12.1509 130.674 12.3794ZM140.562 12.491C140.967 12.2548 141.429 12.1345 141.899 12.1431C142.301 12.138 142.701 12.2192 143.07 12.3811C143.434 12.5251 143.755 12.758 144.004 13.0585L145.322 11.722C144.91 11.2345 144.388 10.8508 143.8 10.6018C143.203 10.3306 142.552 10.1932 141.897 10.199C141.07 10.1886 140.254 10.3971 139.534 10.8032C138.848 11.1962 138.28 11.765 137.887 12.451C137.478 13.1568 137.269 13.9607 137.282 14.7761C137.272 15.5913 137.481 16.3943 137.887 17.1013C138.28 17.7873 138.848 18.3561 139.534 18.7491C140.183 19.1046 140.904 19.3092 141.642 19.3472C142.381 19.3852 143.118 19.2559 143.8 18.9688C144.385 18.7094 144.905 18.3214 145.319 17.8336L144.002 16.4972C143.75 16.7993 143.429 17.0377 143.068 17.1929C142.696 17.3427 142.297 17.4174 141.897 17.4125C141.429 17.4202 140.969 17.3054 140.559 17.0797C140.184 16.8513 139.876 16.5297 139.662 16.146C139.449 15.7201 139.343 15.2489 139.352 14.7729C139.339 14.2965 139.446 13.8245 139.662 13.3997C139.875 13.0208 140.186 12.7066 140.562 12.491ZM149.981 10.3857H152.087V12.2166H149.981V19.1738H147.967V12.2166H145.861V10.3857H147.967V6.72398H149.981V10.3857Z" fill="white"/>
</g>
<defs>
<clipPath id="clip0_765_1178">
<rect width="161.093" height="24.9756" fill="white"/>
</clipPath>
</defs>
</svg>
