<svg width="151" height="16" viewBox="0 0 151 16" fill="none" xmlns="http://www.w3.org/2000/svg">
<path d="M13.4312 9.64553H6.91656C6.74431 9.64553 6.65628 9.55435 6.65628 9.37595V5.79207C6.65628 5.59385 6.74431 5.49474 6.91656 5.49474H15.5058C15.812 5.49474 16.1106 5.57403 16.3976 5.73261C16.7038 5.87136 16.9756 6.06959 17.2053 6.33124C17.4541 6.58893 17.6454 6.87834 17.7832 7.19549C17.9363 7.51265 18.0129 7.83377 18.0129 8.15093V12.5396C18.0129 12.8766 17.9363 13.2056 17.7832 13.5267C17.6493 13.8241 17.4579 14.1055 17.2053 14.3632C16.9756 14.6011 16.7038 14.7993 16.3976 14.9619C16.1106 15.1006 15.812 15.172 15.5058 15.172H2.53773C2.23152 15.172 1.92148 15.1006 1.61527 14.9619C1.32819 14.8033 1.05643 14.6051 0.807633 14.3632C0.577975 14.1055 0.386592 13.8241 0.229659 13.5267C0.0765529 13.2096 0 12.8805 0 12.5396V2.62844C0 2.31128 0.0765529 1.99016 0.229659 1.673C0.382765 1.35584 0.574147 1.07437 0.807633 0.836501C1.05643 0.578811 1.32819 0.380588 1.61527 0.237868C1.92148 0.0792892 2.23152 0 2.53773 0H17.7565C17.9287 0 18.0167 0.0911826 18.0167 0.269583V4.21026C18.0167 4.38866 17.9287 4.47984 17.7565 4.47984H4.61231V10.6604H13.4312V9.64553Z" fill="white"/>
<path d="M32.4567 5.16704C32.4567 5.00842 32.3433 4.92911 32.1164 4.92911C31.9652 4.92911 31.7951 5.02032 31.6022 5.19876C31.4321 5.35738 31.2695 5.5279 31.1183 5.70635L31.1447 5.67462L28.8119 8.66064H32.4567V5.16704ZM36.9826 3.58481V14.8746C36.9826 15.0728 36.8956 15.172 36.7254 15.172H32.7403C32.5513 15.172 32.4567 15.0728 32.4567 14.8746V12.753H25.8779L24.1424 15.053C24.1235 15.1323 24.0479 15.172 23.9155 15.172H19.246C19.1137 15.172 19.0267 15.1204 18.9889 15.0213C18.9511 14.9023 18.9587 14.7913 19.0192 14.6922L28.7816 1.07465C29.258 0.6781 29.863 0.39655 30.6041 0.23793C31.3451 0.0793099 32.1127 0 32.9104 0C33.5192 0 34.0674 0.0594824 34.5627 0.178447C35.0769 0.277585 35.5042 0.467928 35.8445 0.745513C36.2037 1.0231 36.4797 1.39189 36.6687 1.85189C36.8767 2.30792 36.9826 2.88688 36.9826 3.58481Z" fill="white"/>
<path d="M44.0126 15.172H40.1043C39.9189 15.172 39.8262 15.0728 39.8262 14.8745V2.11813C39.8262 1.8603 39.8929 1.59851 40.0227 1.34069C40.1525 1.08286 40.3305 0.852804 40.5529 0.654478C40.794 0.456151 41.0647 0.29749 41.3613 0.178494C41.6579 0.059498 41.9768 0 42.3106 0H43.4007C43.9421 0.059498 44.4612 0.269724 44.9655 0.626712C45.4698 0.963867 45.8703 1.39225 46.1669 1.91187L50.2421 9.13889L54.3469 1.91187C54.6435 1.39225 55.0366 0.967834 55.5186 0.626712C56.0229 0.269724 56.542 0.059498 57.0834 0H58.1736C58.5073 0 58.8262 0.059498 59.1229 0.178494C59.438 0.29749 59.7087 0.456151 59.9312 0.654478C60.1722 0.852804 60.3576 1.08286 60.4911 1.34069C60.6209 1.59851 60.6876 1.8603 60.6876 2.11813V14.8745C60.6876 15.0728 60.5949 15.172 60.4095 15.172H56.5013C56.3159 15.172 56.2232 15.0728 56.2232 14.8745V7.822C55.4408 9.21425 54.714 10.4399 54.0428 11.495C53.3902 12.5303 52.8896 13.3077 52.5336 13.8234C52.1221 14.4025 51.7438 14.7674 51.3879 14.93C51.0356 15.0887 50.7538 15.168 50.5498 15.168H49.964C49.6302 15.168 49.3114 15.0887 49.0147 14.93C48.7366 14.7714 48.3918 14.4025 47.9802 13.8234C47.6094 13.3037 47.0865 12.5303 46.4154 11.495C45.7628 10.4399 45.0471 9.21425 44.2647 7.822V14.8705C44.2647 15.0689 44.1794 15.168 44.0126 15.168V15.172Z" fill="white"/>
<path d="M76.9202 5.49474H69.4422C69.2683 5.49474 69.1794 5.59385 69.1794 5.79207V9.37595C69.1794 9.55435 69.2683 9.64553 69.4422 9.64553H79.0186C79.3278 9.64553 79.6292 9.57417 79.9191 9.43541C80.2282 9.27683 80.5026 9.07861 80.7345 8.83678C80.9857 8.57909 81.1789 8.29761 81.3181 8.00028C81.4726 7.68312 81.5499 7.35407 81.5499 7.01313V2.62844C81.5499 2.31128 81.4726 1.99016 81.3181 1.673C81.1828 1.35584 80.9896 1.07437 80.7345 0.836501C80.5026 0.578811 80.2282 0.380588 79.9191 0.237868C79.6292 0.0792892 79.3278 0 79.0186 0H66.0954C65.7863 0 65.4732 0.0792892 65.1641 0.237868C64.8742 0.376624 64.5998 0.574846 64.3486 0.836501C64.1168 1.07437 63.9235 1.35584 63.7651 1.673C63.6105 1.99016 63.5332 2.31128 63.5332 2.62844V12.5396C63.5332 12.8766 63.6105 13.2056 63.7651 13.5267C63.9197 13.8241 64.1129 14.1055 64.3486 14.3632C64.5998 14.6011 64.8704 14.7993 65.1641 14.9619C65.4732 15.1006 65.7863 15.172 66.0954 15.172H81.2871C81.4611 15.172 81.5499 15.0729 81.5499 14.8746V10.9617C81.5499 10.7635 81.4649 10.6644 81.2871 10.6644H68.19V4.47984H76.9202V5.49474Z" fill="white"/>
<path d="M83.9824 14.6117H87.8212V9.29833H99.0004V5.87758H87.8212V4.34157H99.0304V0.564247H86.1005C85.8381 0.564247 85.5832 0.634778 85.3395 0.771922C85.0958 0.889473 84.8709 1.05796 84.6609 1.27348C84.451 1.48899 84.286 1.73584 84.1511 2.01013C84.0386 2.28442 83.9824 2.56262 83.9824 2.83691V14.6117ZM87.8212 15.172H83.9824C83.6262 15.172 83.4463 14.9839 83.4463 14.6117V2.83691C83.4463 2.48426 83.5213 2.13944 83.6712 1.80246C83.8399 1.46939 84.0461 1.1716 84.2935 0.916902C84.556 0.642615 84.8409 0.423186 85.1408 0.26645C85.4594 0.0901229 85.7818 0 86.1005 0H99.0304C99.3866 0 99.5665 0.188082 99.5665 0.560329V4.34157C99.5665 4.71382 99.3866 4.9019 99.0304 4.9019H88.3573V5.31333H99.0004C99.3566 5.31333 99.5365 5.50141 99.5365 5.87366V9.29833C99.5365 9.67057 99.3566 9.85866 99.0004 9.85866H88.3573V14.6077C88.3573 14.98 88.1774 15.1681 87.8212 15.1681V15.172Z" fill="white"/>
<path d="M106.651 14.5992V0.572755H102.91V14.5992H106.651ZM107.151 0.572755V14.5992C107.151 14.9797 106.986 15.172 106.651 15.172H102.91C102.579 15.172 102.41 14.9797 102.41 14.5992V0.572755C102.41 0.192253 102.576 0 102.91 0H106.651C106.982 0 107.151 0.192253 107.151 0.572755Z" fill="white"/>
<path d="M112.469 15.4111H109.74V12.7434H112.469V15.4111Z" fill="white"/>
<path d="M123.973 5.47156H115.199C115.022 5.47156 114.838 5.51767 114.649 5.60988C114.472 5.7021 114.308 5.82725 114.156 5.98533C114.017 6.13024 113.904 6.3015 113.815 6.4991C113.727 6.68353 113.682 6.87455 113.682 7.07216V13.8105C113.682 14.0081 113.727 14.2057 113.815 14.4033C113.904 14.5877 114.017 14.759 114.156 14.9171C114.308 15.062 114.472 15.1805 114.649 15.2728C114.838 15.365 115.022 15.4111 115.199 15.4111H123.973C124.15 15.4111 124.327 15.365 124.504 15.2728C124.694 15.1805 124.858 15.062 124.997 14.9171C125.148 14.759 125.268 14.5877 125.357 14.4033C125.445 14.2057 125.49 14.0081 125.49 13.8105V7.07216C125.49 6.87455 125.445 6.68353 125.357 6.4991C125.268 6.3015 125.148 6.13024 124.997 5.98533C124.858 5.82725 124.694 5.7021 124.504 5.60988C124.327 5.51767 124.15 5.47156 123.973 5.47156ZM122.76 8.13922V12.7434H116.412V8.13922H122.76Z" fill="white"/>
<path d="M126.693 9.22605V15.4111H129.423V11.6566H132.209L135.468 15.4111H138.539L135.468 11.6566H136.245C136.422 11.6566 136.599 11.6105 136.776 11.5183C136.966 11.4261 137.13 11.3075 137.269 11.1626C137.42 11.0045 137.54 10.8332 137.629 10.6488C137.717 10.4512 137.762 10.2536 137.762 10.056V7.07216C137.762 6.87455 137.717 6.68353 137.629 6.4991C137.54 6.3015 137.42 6.13024 137.269 5.98533C137.13 5.82725 136.966 5.7021 136.776 5.60988C136.599 5.51767 136.422 5.47156 136.245 5.47156H126.693V8.13922H135.032V9.22605H126.693Z" fill="white"/>
<path d="M148.042 11.6566V12.7434H141.693V8.13922H150.771V5.47156H140.48C140.304 5.47156 140.12 5.51767 139.931 5.60988C139.754 5.7021 139.59 5.82725 139.438 5.98533C139.299 6.13024 139.185 6.3015 139.097 6.4991C139.008 6.68353 138.964 6.87455 138.964 7.07216V13.8105C138.964 14.0081 139.008 14.2057 139.097 14.4033C139.185 14.5877 139.299 14.759 139.438 14.9171C139.59 15.062 139.754 15.1805 139.931 15.2728C140.12 15.365 140.304 15.4111 140.48 15.4111H149.255C149.432 15.4111 149.609 15.365 149.786 15.2728C149.975 15.1805 150.14 15.062 150.279 14.9171C150.43 14.759 150.55 14.5877 150.639 14.4033C150.727 14.2057 150.771 14.0081 150.771 13.8105V10.8267C150.771 10.629 150.727 10.438 150.639 10.2536C150.55 10.056 150.43 9.88473 150.279 9.73982C150.14 9.58174 149.975 9.45659 149.786 9.36437C149.609 9.27216 149.432 9.22605 149.255 9.22605H143.456V11.6566H148.042Z" fill="white"/>
</svg>
