<svg width="140" height="26" viewBox="0 0 140 26" fill="none" xmlns="http://www.w3.org/2000/svg">
<path d="M32.4375 6.26341H35.6202V20.4018H32.4375V6.26341Z" fill="white"/>
<path d="M38.1787 15.0362C38.1787 14.2609 38.3011 13.5332 38.5459 12.8532C38.8043 12.1595 39.1716 11.5611 39.6476 11.0578C40.1236 10.541 40.7017 10.1329 41.3817 9.83371C42.0618 9.53449 42.8371 9.38488 43.7075 9.38488C44.2788 9.38488 44.8024 9.43928 45.2785 9.54809C45.7545 9.6433 46.217 9.78611 46.6658 9.97653L46.0333 12.4043C45.7477 12.2955 45.4349 12.2003 45.0949 12.1187C44.7548 12.0371 44.374 11.9963 43.9524 11.9963C43.0547 11.9963 42.3814 12.2751 41.9326 12.8328C41.4974 13.3904 41.2797 14.1249 41.2797 15.0362C41.2797 16.0018 41.4838 16.7499 41.8918 17.2803C42.3134 17.8108 43.0411 18.076 44.0748 18.076C44.442 18.076 44.8364 18.042 45.2581 17.974C45.6797 17.906 46.0673 17.7972 46.421 17.6476L46.8494 20.1366C46.4958 20.2862 46.0537 20.4154 45.5233 20.5242C44.9929 20.633 44.408 20.6874 43.7687 20.6874C42.7895 20.6874 41.9462 20.5446 41.2389 20.259C40.5317 19.9598 39.9468 19.5585 39.4844 19.0553C39.0355 18.5521 38.7023 17.9604 38.4847 17.2803C38.2807 16.5867 38.1787 15.8386 38.1787 15.0362Z" fill="white"/>
<path d="M47.8615 15.1178C47.8615 14.1657 48.0043 13.336 48.29 12.6288C48.5892 11.9079 48.9768 11.3094 49.4529 10.8334C49.9289 10.3574 50.4729 9.99693 51.085 9.75211C51.7107 9.50729 52.3499 9.38488 53.0028 9.38488C54.5261 9.38488 55.7298 9.85412 56.6139 10.7926C57.4979 11.7175 57.94 13.0844 57.94 14.8933C57.94 15.0702 57.9332 15.2674 57.9196 15.485C57.906 15.689 57.8924 15.8726 57.8788 16.0358H50.983C51.051 16.6615 51.3434 17.1579 51.8603 17.5252C52.3771 17.8924 53.0708 18.076 53.9412 18.076C54.4989 18.076 55.0429 18.0284 55.5734 17.9332C56.1174 17.8244 56.5595 17.6952 56.8995 17.5456L57.3075 20.0142C57.1443 20.0958 56.9267 20.1774 56.6547 20.259C56.3826 20.3406 56.0766 20.4086 55.7366 20.463C55.4102 20.531 55.0565 20.5854 54.6757 20.6262C54.2949 20.667 53.914 20.6874 53.5332 20.6874C52.5675 20.6874 51.7243 20.5446 51.0034 20.259C50.2961 19.9734 49.7045 19.5857 49.2284 19.0961C48.766 18.5929 48.4192 18.0012 48.188 17.3211C47.9703 16.6411 47.8615 15.9066 47.8615 15.1178ZM55.0021 13.9549C54.9885 13.6964 54.9409 13.4448 54.8593 13.2C54.7913 12.9552 54.6757 12.7376 54.5125 12.5471C54.3629 12.3567 54.1657 12.2003 53.9208 12.0779C53.6896 11.9555 53.3972 11.8943 53.0436 11.8943C52.7035 11.8943 52.4111 11.9555 52.1663 12.0779C51.9215 12.1867 51.7175 12.3363 51.5542 12.5267C51.391 12.7172 51.2618 12.9416 51.1666 13.2C51.085 13.4448 51.0238 13.6964 50.983 13.9549H55.0021Z" fill="white"/>
<path d="M60.1839 6.99787L63.2237 6.50823V9.6705H66.8756V12.2003H63.2237V15.9746C63.2237 16.6139 63.3325 17.1239 63.5501 17.5048C63.7814 17.8856 64.237 18.076 64.9171 18.076C65.2435 18.076 65.5767 18.0488 65.9167 17.9944C66.2704 17.9264 66.59 17.838 66.8756 17.7292L67.3041 20.0958C66.9368 20.2454 66.5288 20.3746 66.08 20.4834C65.6311 20.5922 65.0803 20.6466 64.4274 20.6466C63.5977 20.6466 62.9109 20.5378 62.3668 20.3202C61.8228 20.089 61.3876 19.7762 61.0611 19.3817C60.7347 18.9737 60.5035 18.484 60.3675 17.9128C60.2451 17.3416 60.1839 16.7091 60.1839 16.0154V6.99787Z" fill="white"/>
<path d="M68.4426 15.1178C68.4426 14.1657 68.5854 13.336 68.871 12.6288C69.1702 11.9079 69.5579 11.3094 70.0339 10.8334C70.5099 10.3574 71.054 9.99693 71.666 9.75211C72.2917 9.50729 72.931 9.38488 73.5838 9.38488C75.1071 9.38488 76.3108 9.85412 77.1949 10.7926C78.079 11.7175 78.521 13.0844 78.521 14.8933C78.521 15.0702 78.5142 15.2674 78.5006 15.485C78.487 15.689 78.4734 15.8726 78.4598 16.0358H71.564C71.632 16.6615 71.9245 17.1579 72.4413 17.5252C72.9582 17.8924 73.6518 18.076 74.5223 18.076C75.0799 18.076 75.624 18.0284 76.1544 17.9332C76.6985 17.8244 77.1405 17.6952 77.4805 17.5456L77.8886 20.0142C77.7254 20.0958 77.5077 20.1774 77.2357 20.259C76.9637 20.3406 76.6577 20.4086 76.3176 20.463C75.9912 20.531 75.6376 20.5854 75.2567 20.6262C74.8759 20.667 74.4951 20.6874 74.1143 20.6874C73.1486 20.6874 72.3053 20.5446 71.5844 20.259C70.8772 19.9734 70.2855 19.5857 69.8095 19.0961C69.347 18.5929 69.0002 18.0012 68.769 17.3211C68.5514 16.6411 68.4426 15.9066 68.4426 15.1178ZM75.5832 13.9549C75.5696 13.6964 75.522 13.4448 75.4404 13.2C75.3724 12.9552 75.2567 12.7376 75.0935 12.5471C74.9439 12.3567 74.7467 12.2003 74.5019 12.0779C74.2707 11.9555 73.9782 11.8943 73.6246 11.8943C73.2846 11.8943 72.9922 11.9555 72.7473 12.0779C72.5025 12.1867 72.2985 12.3363 72.1353 12.5267C71.9721 12.7172 71.8429 12.9416 71.7477 13.2C71.666 13.4448 71.6048 13.6964 71.564 13.9549H75.5832Z" fill="white"/>
<path d="M84.9677 18.28C85.2669 18.28 85.5525 18.2732 85.8245 18.2596C86.0965 18.246 86.3142 18.2256 86.4774 18.1984V15.893C86.355 15.8658 86.1714 15.8386 85.9265 15.8114C85.6817 15.7842 85.4573 15.7706 85.2533 15.7706C84.9677 15.7706 84.6956 15.791 84.4372 15.8318C84.1924 15.859 83.9748 15.9202 83.7843 16.0154C83.5939 16.1106 83.4443 16.2399 83.3355 16.4031C83.2267 16.5663 83.1723 16.7703 83.1723 17.0151C83.1723 17.4912 83.3287 17.8244 83.6415 18.0148C83.968 18.1916 84.41 18.28 84.9677 18.28ZM84.7228 9.38488C85.6205 9.38488 86.3686 9.48689 86.967 9.6909C87.5655 9.89492 88.0415 10.1873 88.3951 10.5682C88.7624 10.949 89.0208 11.4114 89.1704 11.9555C89.32 12.4995 89.3948 13.1048 89.3948 13.7712V20.0958C88.9596 20.191 88.3543 20.2998 87.5791 20.4222C86.8038 20.5582 85.8653 20.6262 84.7636 20.6262C84.07 20.6262 83.4375 20.565 82.8663 20.4426C82.3086 20.3202 81.8258 20.123 81.4178 19.851C81.0097 19.5653 80.6969 19.1981 80.4793 18.7493C80.2617 18.3004 80.1528 17.7496 80.1528 17.0967C80.1528 16.4711 80.2753 15.9406 80.5201 15.5054C80.7785 15.0702 81.1185 14.7233 81.5402 14.4649C81.9618 14.2065 82.4446 14.0229 82.9887 13.9141C83.5327 13.7917 84.0972 13.7304 84.682 13.7304C85.0765 13.7304 85.4233 13.7508 85.7225 13.7916C86.0353 13.8189 86.287 13.8597 86.4774 13.9141V13.6284C86.4774 13.1116 86.321 12.6968 86.0081 12.3839C85.6953 12.0711 85.1513 11.9147 84.376 11.9147C83.8592 11.9147 83.3491 11.9555 82.8459 12.0371C82.3426 12.1051 81.9074 12.2071 81.5402 12.3431L81.1525 9.89492C81.3293 9.84051 81.547 9.78611 81.8054 9.73171C82.0774 9.6637 82.3698 9.6093 82.6827 9.56849C82.9955 9.51409 83.3219 9.47328 83.6619 9.44608C84.0156 9.40528 84.3692 9.38488 84.7228 9.38488Z" fill="white"/>
<path d="M106.695 17.668V20.4018H97.2489V6.26341H100.432V17.668H106.695Z" fill="white"/>
<path d="M112.881 18.28C113.18 18.28 113.465 18.2732 113.737 18.2596C114.009 18.246 114.227 18.2256 114.39 18.1984V15.893C114.268 15.8658 114.084 15.8386 113.839 15.8114C113.595 15.7842 113.37 15.7706 113.166 15.7706C112.881 15.7706 112.609 15.791 112.35 15.8318C112.105 15.859 111.888 15.9202 111.697 16.0154C111.507 16.1106 111.357 16.2399 111.248 16.4031C111.14 16.5663 111.085 16.7703 111.085 17.0151C111.085 17.4912 111.242 17.8244 111.554 18.0148C111.881 18.1916 112.323 18.28 112.881 18.28ZM112.636 9.38488C113.533 9.38488 114.281 9.48689 114.88 9.6909C115.478 9.89492 115.954 10.1873 116.308 10.5682C116.675 10.949 116.934 11.4114 117.083 11.9555C117.233 12.4995 117.308 13.1048 117.308 13.7712V20.0958C116.873 20.191 116.267 20.2998 115.492 20.4222C114.717 20.5582 113.778 20.6262 112.677 20.6262C111.983 20.6262 111.35 20.565 110.779 20.4426C110.222 20.3202 109.739 20.123 109.331 19.851C108.923 19.5653 108.61 19.1981 108.392 18.7493C108.175 18.3004 108.066 17.7496 108.066 17.0967C108.066 16.4711 108.188 15.9406 108.433 15.5054C108.691 15.0702 109.031 14.7233 109.453 14.4649C109.875 14.2065 110.358 14.0229 110.902 13.9141C111.446 13.7917 112.01 13.7304 112.595 13.7304C112.989 13.7304 113.336 13.7508 113.635 13.7916C113.948 13.8189 114.2 13.8597 114.39 13.9141V13.6284C114.39 13.1116 114.234 12.6968 113.921 12.3839C113.608 12.0711 113.064 11.9147 112.289 11.9147C111.772 11.9147 111.262 11.9555 110.759 12.0371C110.256 12.1051 109.82 12.2071 109.453 12.3431L109.065 9.89492C109.242 9.84051 109.46 9.78611 109.718 9.73171C109.99 9.6637 110.283 9.6093 110.596 9.56849C110.908 9.51409 111.235 9.47328 111.575 9.44608C111.928 9.40528 112.282 9.38488 112.636 9.38488Z" fill="white"/>
<path d="M126.932 14.9545C126.932 12.996 126.211 12.0167 124.769 12.0167C124.457 12.0167 124.144 12.0575 123.831 12.1391C123.532 12.2207 123.287 12.3227 123.096 12.4451V17.974C123.246 18.0012 123.436 18.0284 123.668 18.0556C123.899 18.0692 124.151 18.076 124.423 18.076C125.252 18.076 125.878 17.7904 126.299 17.2191C126.721 16.6479 126.932 15.893 126.932 14.9545ZM130.033 15.0362C130.033 15.893 129.904 16.6683 129.645 17.362C129.401 18.0556 129.04 18.6473 128.564 19.1369C128.088 19.6265 127.503 20.0074 126.81 20.2794C126.116 20.5378 125.327 20.667 124.443 20.667C124.076 20.667 123.688 20.6466 123.28 20.6058C122.886 20.5786 122.491 20.5378 122.097 20.4834C121.716 20.429 121.349 20.3678 120.995 20.2998C120.641 20.2182 120.329 20.1366 120.057 20.055V5.05971L123.096 4.57007V9.91532C123.436 9.76571 123.79 9.6501 124.157 9.56849C124.525 9.48689 124.919 9.44608 125.341 9.44608C126.102 9.44608 126.776 9.58209 127.36 9.85412C127.945 10.1125 128.435 10.4866 128.829 10.9762C129.224 11.4659 129.523 12.0575 129.727 12.7512C129.931 13.4312 130.033 14.1929 130.033 15.0362Z" fill="white"/>
<path d="M135.45 18.2188C136.008 18.2188 136.402 18.1644 136.633 18.0556C136.864 17.9468 136.98 17.736 136.98 17.4232C136.98 17.1783 136.83 16.9675 136.531 16.7907C136.232 16.6003 135.776 16.3895 135.164 16.1583C134.688 15.9814 134.253 15.7978 133.859 15.6074C133.478 15.417 133.151 15.1926 132.879 14.9341C132.607 14.6621 132.397 14.3425 132.247 13.9753C132.097 13.608 132.022 13.166 132.022 12.6492C132.022 11.6427 132.397 10.847 133.145 10.2622C133.893 9.6773 134.92 9.38488 136.225 9.38488C136.878 9.38488 137.504 9.44608 138.102 9.56849C138.701 9.6773 139.177 9.79971 139.53 9.93572L139 12.3023C138.646 12.1799 138.259 12.0711 137.837 11.9759C137.429 11.8807 136.967 11.8331 136.45 11.8331C135.498 11.8331 135.022 12.0983 135.022 12.6288C135.022 12.7512 135.042 12.86 135.083 12.9552C135.124 13.0504 135.205 13.1456 135.328 13.2408C135.45 13.3224 135.613 13.4176 135.817 13.5264C136.035 13.6216 136.307 13.7304 136.633 13.8529C137.3 14.0977 137.851 14.3425 138.286 14.5873C138.721 14.8185 139.061 15.077 139.306 15.3626C139.564 15.6346 139.741 15.9406 139.836 16.2807C139.945 16.6207 140 17.0151 140 17.464C140 18.5249 139.598 19.3273 138.796 19.8714C138.007 20.4154 136.885 20.6874 135.43 20.6874C134.478 20.6874 133.682 20.6058 133.043 20.4426C132.417 20.2794 131.982 20.1434 131.737 20.0346L132.247 17.566C132.764 17.77 133.294 17.9332 133.838 18.0556C134.382 18.1644 134.92 18.2188 135.45 18.2188Z" fill="white"/>
<path d="M12.5573 25.1494C19.4924 25.1494 25.1145 19.5195 25.1145 12.5747C25.1145 5.62988 19.4924 0 12.5573 0C5.62208 0 0 5.62988 0 12.5747C0 19.5195 5.62208 25.1494 12.5573 25.1494Z" fill="white"/>
<path fill-rule="evenodd" clip-rule="evenodd" d="M12.008 14.1934H16.3713C16.7319 14.1934 17.0307 14.4763 17.0307 14.8536V19.223C17.0307 19.5841 16.7481 19.8833 16.3713 19.8833H12.008C11.6474 19.8833 11.3486 19.6003 11.3486 19.223V14.8222C11.3486 14.4763 11.616 14.1934 12.008 14.1934Z" fill="black"/>
<path fill-rule="evenodd" clip-rule="evenodd" d="M14.1594 11.3324L16.7958 7.82716C17.0308 7.54418 17.4238 7.46608 17.7064 7.70139L21.2068 10.3415C21.4894 10.5768 21.5674 10.9703 21.3324 11.2533L18.6959 14.7271C18.461 15.0101 18.068 15.0882 17.7854 14.8529L14.285 12.2128C14.0024 12.0089 13.9558 11.6154 14.1594 11.3324Z" fill="black"/>
<path fill-rule="evenodd" clip-rule="evenodd" d="M6.79511 13.2815L10.7037 15.2623C11.0329 15.4195 11.1584 15.8283 10.9863 16.1265L9.00817 20.0405C8.85118 20.3701 8.44301 20.4959 8.14523 20.3234L4.23666 18.3426C3.90748 18.1854 3.78189 17.7766 3.95407 17.4785L5.93216 13.5645C6.08915 13.2338 6.46593 13.108 6.79511 13.2815Z" fill="black"/>
</svg>
