<svg width="14" height="14" viewBox="0 0 14 14" fill="none" xmlns="http://www.w3.org/2000/svg">
<path d="M14 0.875V5.45453C14 5.6866 13.9078 5.90916 13.7437 6.07325C13.5796 6.23734 13.3571 6.32953 13.125 6.32953C12.8929 6.32953 12.6704 6.23734 12.5063 6.07325C12.3422 5.90916 12.25 5.6866 12.25 5.45453V2.98744L8.99243 6.24501C8.82812 6.40807 8.6059 6.49937 8.37441 6.49893C8.14293 6.49848 7.92106 6.40633 7.75737 6.24265C7.59369 6.07897 7.50153 5.8571 7.50109 5.62562C7.50064 5.39414 7.59194 5.17191 7.75499 5.0076L11.0126 1.75H8.54547C8.3134 1.75 8.09084 1.65781 7.92675 1.49372C7.76266 1.32962 7.67047 1.10706 7.67047 0.875C7.67047 0.642936 7.76266 0.420376 7.92675 0.256282C8.09084 0.0921872 8.3134 0 8.54547 0L13.125 0C13.3571 0 13.5796 0.0921872 13.7437 0.256282C13.9078 0.420376 14 0.642936 14 0.875ZM0 13.125C0 13.3571 0.0921872 13.5796 0.256282 13.7437C0.420376 13.9078 0.642936 14 0.875 14H5.45453C5.6866 14 5.90916 13.9078 6.07325 13.7437C6.23734 13.5796 6.32953 13.3571 6.32953 13.125C6.32953 12.8929 6.23734 12.6704 6.07325 12.5063C5.90916 12.3422 5.6866 12.25 5.45453 12.25H2.98747L6.24501 8.99243C6.40911 8.82833 6.50129 8.60577 6.50129 8.37371C6.50129 8.14164 6.40911 7.91908 6.24501 7.75499C6.08092 7.59089 5.85836 7.49871 5.62629 7.49871C5.39423 7.49871 5.17167 7.59089 5.00757 7.75499L1.75 11.0126V8.5455C1.75 8.31343 1.65781 8.09087 1.49372 7.92678C1.32962 7.76268 1.10706 7.6705 0.875 7.6705C0.642936 7.6705 0.420376 7.76268 0.256282 7.92678C0.0921872 8.09087 0 8.31343 0 8.5455L0 13.125Z" fill="#E94AEA"/>
</svg>
