<svg width="24" height="24" viewBox="0 0 24 24" fill="none" xmlns="http://www.w3.org/2000/svg">
<path d="M13.5373 11.9999C13.5373 15.7638 10.5069 18.815 6.76866 18.815C3.03042 18.815 0 15.7638 0 11.9999C0 8.23605 3.03042 5.18481 6.76866 5.18481C10.5068 5.18481 13.5373 8.23605 13.5373 11.9999Z" fill="white"/>
<path d="M20.962 11.9999C20.962 15.543 19.4468 18.4152 17.5777 18.4152C15.7086 18.4152 14.1934 15.543 14.1934 11.9999C14.1934 8.45689 15.7086 5.58472 17.5777 5.58472C19.4468 5.58472 20.962 8.45689 20.962 11.9999Z" fill="white"/>
<path d="M23.9997 12C23.9997 15.1744 23.4668 17.7477 22.8094 17.7477C22.152 17.7477 21.6191 15.1744 21.6191 12C21.6191 8.82554 22.152 6.2522 22.8094 6.2522C23.4668 6.2522 23.9997 8.82554 23.9997 12Z" fill="white"/>
</svg>
