<svg width="40" height="40" viewBox="0 0 40 40" fill="none" xmlns="http://www.w3.org/2000/svg">
<path d="M35.2564 22.05H4.74362C3.5042 22.05 2.5 21.2668 2.5 20.3001C2.5 19.3334 3.5042 18.55 4.74362 18.55H35.2564C36.4958 18.55 37.5 19.3333 37.5 20.3001C37.5 21.2668 36.4958 22.05 35.2564 22.05Z" fill="#F4F7FF"/>
<path d="M18.88 12.25H4.32002C3.3146 12.25 2.5 11.4667 2.5 10.5C2.5 9.53332 3.3146 8.75 4.32002 8.75H18.88C19.8853 8.75 20.7 9.53326 20.7 10.5C20.7 11.4667 19.8853 12.25 18.88 12.25Z" fill="#F4F7FF"/>
<path d="M35.68 31.8501H21.1201C20.1147 31.8501 19.3 31.0668 19.3 30.1001C19.3 29.1334 20.1147 28.3501 21.1201 28.3501H35.68C36.6854 28.3501 37.5 29.1334 37.5 30.1001C37.5 31.0668 36.6854 31.8501 35.68 31.8501Z" fill="#F4F7FF"/>
</svg>
