<svg width="32" height="32" viewBox="0 0 32 32" fill="none" xmlns="http://www.w3.org/2000/svg">
<g clip-path="url(#clip0_873_5184)">
<path d="M0 16.866C0 16.2402 0 15.6152 0 14.9894C0.0250594 14.774 0.052468 14.5587 0.0759612 14.3425C0.427575 11.1619 1.57561 8.3001 3.65162 5.86513C7.32751 1.55439 12.0254 -0.406746 17.6755 0.0710066C20.7938 0.334162 23.6067 1.49173 26.021 3.48968C30.4252 7.13391 32.4025 11.8449 31.9327 17.5395C31.7165 20.1585 30.8316 22.5794 29.3625 24.7614C26.8135 28.5474 23.306 30.9135 18.8008 31.7523C18.2095 31.8627 17.6081 31.9199 17.0122 32.0013C16.3865 32.0013 15.7615 32.0013 15.1358 32.0013C14.9205 31.9763 14.7051 31.9488 14.4898 31.9254C11.8672 31.6371 9.43719 30.7983 7.2539 29.3118C3.45819 26.7265 1.09008 23.1864 0.249027 18.6548C0.13861 18.0627 0.0814429 17.462 0 16.866ZM18.6802 15.8799C18.8016 15.7953 18.9073 15.7429 18.9872 15.663C20.5886 14.0668 22.1869 12.4675 23.7845 10.8674C23.909 10.7421 24.0311 10.6121 24.1384 10.4719C24.7304 9.70359 24.5989 8.55855 23.8534 7.93904C23.0476 7.27019 22.006 7.34224 21.2112 8.13562C19.5807 9.76155 17.955 11.3922 16.3262 13.0212C16.2471 13.1003 16.1633 13.1747 16.0724 13.2601C15.9894 13.1849 15.9197 13.1246 15.854 13.0604C14.1993 11.4439 12.5453 9.82734 10.8891 8.2116C10.7552 8.0808 10.6173 7.95236 10.467 7.84114C9.69484 7.27019 8.56952 7.41038 7.95869 8.14816C7.28914 8.95642 7.36197 9.99103 8.15682 10.7891C9.78176 12.4205 11.4122 14.0472 13.0403 15.6763C13.1194 15.7554 13.193 15.8392 13.3104 15.9653C13.2071 16.0491 13.1115 16.1125 13.0316 16.1924C11.4318 17.7901 9.83266 19.3887 8.23591 20.9895C8.1114 21.1148 7.99002 21.2448 7.88195 21.385C7.29697 22.1455 7.41679 23.2741 8.14272 23.8975C8.93679 24.5797 9.98693 24.5241 10.7881 23.744C12.4678 22.1087 14.1429 20.4679 15.8203 18.8302C15.9002 18.7527 15.9847 18.6799 16.1273 18.5498C16.2048 18.6587 16.2596 18.7637 16.3395 18.8435C17.9582 20.4671 19.5808 22.086 21.1986 23.7096C21.685 24.1975 22.2511 24.4607 22.9442 24.3369C23.6552 24.21 24.1572 23.8012 24.3984 23.1143C24.6631 22.3601 24.4697 21.6975 23.9285 21.1321C23.5323 20.7185 23.1196 20.3199 22.7147 19.915C21.3968 18.5968 20.078 17.2779 18.6802 15.8799Z" fill="white"/>
</g>
<defs>
<clipPath id="clip0_873_5184">
<rect width="32" height="32" fill="white"/>
</clipPath>
</defs>
</svg>
