<svg width="14" height="14" viewBox="0 0 14 14" fill="none" xmlns="http://www.w3.org/2000/svg">
<path d="M13.7264 5.50522C13.7264 4.98928 13.3081 4.57102 12.7922 4.57102H10.7502L13.7264 1.59481C14.0912 1.22997 14.0912 0.638459 13.7264 0.273628C13.3615 -0.0912094 12.77 -0.0912094 12.4052 0.273628L9.42898 3.24984V1.20784C9.42898 0.691888 9.01075 0.273628 8.49476 0.273628C7.97885 0.273628 7.56055 0.691888 7.56055 1.20784V5.50522C7.56055 6.02121 7.97885 6.43944 8.49476 6.43944H12.7922C13.3081 6.43944 13.7264 6.02121 13.7264 5.50522Z" fill="#E94AEA"/>
<path d="M0.273628 8.49476C0.273628 9.01075 0.691888 9.42898 1.20785 9.42898H3.24983L0.273628 12.4052C-0.0912095 12.77 -0.0912095 13.3616 0.273628 13.7264C0.638459 14.0912 1.22997 14.0912 1.59481 13.7264L4.57101 10.7502V12.7922C4.57101 13.3081 4.98928 13.7264 5.50523 13.7264C6.02115 13.7264 6.43946 13.3081 6.43946 12.7922V8.49476C6.43946 7.97885 6.02115 7.56055 5.50523 7.56055H1.20785C0.691888 7.56055 0.273628 7.97885 0.273628 8.49476Z" fill="#E94AEA"/>
</svg>
