<svg width="143" height="145" viewBox="0 0 143 145" fill="none" xmlns="http://www.w3.org/2000/svg">
<path d="M16.154 43.5106L15.4137 43.0484L16.2068 41.7679L8.7512 37.1241L7.95805 38.4046L7.21777 37.9423L9.96208 33.4898C10.2793 32.9744 10.6548 32.5759 11.0884 32.2943C11.5219 32.0073 11.9767 31.8586 12.4526 31.8426C12.9285 31.8267 13.3885 31.9542 13.8327 32.2305L13.9331 32.2943C14.3509 32.5546 14.647 32.8522 14.8162 33.1816C14.9907 33.5163 15.0806 33.8457 15.0911 34.1699C15.1017 34.494 15.0753 34.7915 15.0012 35.0572L15.1546 35.1528C15.3449 34.9615 15.5882 34.7968 15.8896 34.664C16.191 34.5312 16.5294 34.4621 16.8995 34.4727C17.2697 34.4833 17.6609 34.6215 18.0787 34.8818L18.2056 34.9615C18.692 35.2644 19.0357 35.6416 19.2367 36.0933C19.4429 36.5449 19.5063 37.0337 19.4429 37.5544C19.3741 38.0751 19.1838 38.5905 18.8665 39.1059L16.154 43.5106ZM12.5795 38.3674L13.9913 36.0827C14.3561 35.4929 14.4936 34.935 14.409 34.4143C14.3244 33.8936 14.0442 33.4844 13.5683 33.1869L13.4414 33.1072C12.9655 32.8097 12.4737 32.7406 11.9714 32.8947C11.4691 33.0488 11.0355 33.4207 10.6706 34.0105L9.25882 36.2952L12.5795 38.3674ZM16.7144 40.9443L18.0892 38.7127C18.4858 38.0698 18.6339 37.4907 18.5387 36.9806C18.4435 36.4652 18.1474 36.0508 17.6451 35.7373L17.5446 35.6735C17.0423 35.36 16.54 35.275 16.0376 35.4185C15.5353 35.5619 15.0858 35.9551 14.6946 36.598L13.3198 38.8296L16.7144 40.9443Z" fill="white"/>
<path d="M21.9919 34.5152L14.0498 27.5867L16.7465 24.4625C17.1748 23.9683 17.6296 23.607 18.1213 23.3732C18.6131 23.1448 19.1101 23.0544 19.6072 23.1129C20.1095 23.1713 20.5801 23.3945 21.0295 23.7824L21.1406 23.8833C21.6799 24.3509 21.9866 24.8503 22.0712 25.3763C22.1558 25.9024 22.0924 26.3806 21.8914 26.8163L22.0289 26.9331C22.2669 26.6728 22.5418 26.524 22.8591 26.4762C23.1763 26.4337 23.5095 26.5612 23.8532 26.8641L26.5605 29.2232L25.9312 29.9511L23.3085 27.6664C23.0653 27.4539 22.8221 27.3582 22.5788 27.3795C22.3356 27.4007 22.0977 27.5442 21.8703 27.8098L19.2529 30.8437L22.6211 33.782L21.9919 34.5152ZM18.5919 30.2699L20.6012 27.9427C21.1141 27.3476 21.3732 26.7737 21.3732 26.2052C21.3732 25.642 21.1194 25.1373 20.6065 24.6856L20.5484 24.6378C20.0355 24.1915 19.5014 24.0002 18.9568 24.0746C18.4069 24.149 17.8728 24.489 17.344 25.1001L15.3347 27.4326L18.5919 30.2699Z" fill="white"/>
<path d="M28.5319 27.3104L21.7002 19.282L26.5331 15.1323L27.0989 15.7965L23.001 19.3192L25.5602 22.3265L29.3409 19.0801L29.9067 19.7443L26.126 22.9907L28.7011 26.0193L32.8466 22.4594L33.4124 23.1235L28.5319 27.3104Z" fill="white"/>
<path d="M34.5603 22.199L31.9111 11.4023L33.3652 10.4938L41.852 17.6295L40.9954 18.1662L38.7534 16.264L34.6977 18.8038L35.4116 21.6676L34.5603 22.199ZM34.4651 17.9111L38.0607 15.6583L33.0163 11.3864L32.8629 11.482L34.4651 17.9111Z" fill="white"/>
<path d="M43.5965 16.8006L39.4668 7.08258L40.3498 6.70534L42.2111 11.0941L42.375 11.0251L44.9977 4.71285L46.2403 4.18152L43.2792 11.1313L50.5339 13.8305L49.2754 14.3671L42.7504 11.8805L42.5865 11.9496L44.4848 16.4181L43.5965 16.8006Z" fill="white"/>
<path d="M52.2373 13.3471L49.5723 3.12428L55.7218 1.50903L55.9439 2.35385L50.725 3.72468L51.7244 7.55026L56.5361 6.28569L56.7582 7.13051L51.9464 8.39507L52.9511 12.2525L58.2282 10.8658L58.4503 11.7106L52.2373 13.3471Z" fill="white"/>
<path d="M60.7765 11.3226L59.5498 0.828817L65.7575 0.0955811L65.858 0.966963L60.6073 1.58862L61.0674 5.51515L65.8844 4.94663L65.9849 5.81801L61.1678 6.38653L61.7336 11.2163L60.7765 11.3226Z" fill="white"/>
<path d="M68.6709 3.44833L68.6815 2.75229L70.0034 2.76823L71.0239 2.89044L71.1032 2.74166L70.2995 2.08281L69.3795 1.13173L69.8659 0.653536L70.786 1.60462L71.4205 2.42818L71.5738 2.35379L71.4839 1.32833L71.4998 0L72.1925 0.0106266L72.1713 1.33895L72.0497 2.36442L72.1978 2.44412L72.8535 1.6365L73.8 0.711982L74.2758 1.20081L73.3346 2.12532L72.515 2.76292L72.5891 2.917L73.6096 2.82668L74.9315 2.84262L74.9209 3.53866L73.599 3.52272L72.5785 3.40051L72.4992 3.54929L73.3029 4.20814L74.223 5.15922L73.7365 5.63741L72.8164 4.68633L72.1819 3.86277L72.0286 3.93716L72.1185 4.96262L72.0973 6.29095L71.4046 6.28032L71.4205 4.952L71.5421 3.92653L71.3941 3.84683L70.7384 4.65445L69.7919 5.57897L69.316 5.09014L70.2625 4.16563L71.0821 3.52803L71.0081 3.37395L69.9875 3.46427L68.6709 3.44833Z" fill="white"/>
<path d="M80.7803 11.227L80.9812 10.3769L82.4459 10.7223L84.4552 2.14129L82.9905 1.79593L83.1915 0.945801L88.2676 2.14661C88.8546 2.28475 89.3463 2.51322 89.7587 2.83734C90.1659 3.16145 90.4567 3.54932 90.6206 3.99564C90.7899 4.44195 90.811 4.92546 90.6947 5.43023L90.6682 5.54712C90.5572 6.02532 90.3721 6.40256 90.113 6.67354C89.8539 6.94452 89.5737 7.1358 89.267 7.24738C88.9603 7.35896 88.6748 7.42803 88.4051 7.44397L88.3628 7.61931C88.6007 7.7362 88.8334 7.92217 89.0608 8.16658C89.2881 8.41099 89.4521 8.71385 89.5578 9.06984C89.6636 9.42583 89.6636 9.84558 89.5525 10.3238L89.5155 10.4725C89.3833 11.0304 89.1401 11.4768 88.7752 11.8168C88.4104 12.1569 87.9768 12.3747 87.4639 12.4757C86.951 12.5766 86.4011 12.5607 85.8194 12.4225L80.7803 11.227ZM83.3765 10.9401L85.9199 11.5405C86.6496 11.7159 87.2418 11.6734 87.7018 11.4183C88.1566 11.1633 88.4527 10.7488 88.5902 10.1697L88.6166 10.0528C88.7541 9.47365 88.6695 8.96889 88.3787 8.53851C88.0826 8.10813 87.5696 7.80527 86.8399 7.62993L84.2966 7.02953L83.3765 10.9401ZM84.4922 6.1794L87.0938 6.79575C87.7653 6.95514 88.3364 6.91264 88.7964 6.66291C89.2617 6.4185 89.5578 6.02 89.6847 5.46742L89.7164 5.31865C89.8434 4.77138 89.7587 4.28255 89.4521 3.85218C89.1454 3.4218 88.6589 3.12957 87.9821 2.97017L85.3806 2.35383L84.4922 6.1794Z" fill="white"/>
<path d="M91.123 13.9208L95.147 4.16028L98.9488 5.74364C99.5516 5.99337 100.038 6.31748 100.413 6.71066C100.789 7.10385 101.027 7.55016 101.133 8.04961C101.238 8.54907 101.175 9.06977 100.953 9.61704L100.895 9.75519C100.62 10.414 100.25 10.8657 99.779 11.1154C99.3084 11.3598 98.8378 11.4554 98.3619 11.397L98.2931 11.5617C98.6157 11.7052 98.8431 11.923 98.9858 12.2099C99.1286 12.4968 99.1074 12.8528 98.933 13.2832L97.5634 16.604L96.6751 16.2321L98.0023 13.0122C98.1239 12.7147 98.1398 12.4543 98.0393 12.2259C97.9442 12.0027 97.7326 11.8221 97.4101 11.6839L93.7193 10.1484L92.0114 14.2874L91.123 13.9208ZM94.0524 9.34075L96.8813 10.5203C97.6057 10.8178 98.2297 10.8816 98.7637 10.7063C99.2978 10.5309 99.6944 10.1271 99.9535 9.49483L99.9799 9.42576C100.239 8.79348 100.25 8.23027 100.006 7.73082C99.7631 7.23137 99.2714 6.82756 98.5311 6.51938L95.7022 5.33983L94.0524 9.34075Z" fill="white"/>
<path d="M99.9902 17.8846L105.421 8.83606L110.862 12.1303L110.412 12.8795L105.791 10.0794L103.76 13.4693L108.017 16.0462L107.567 16.7954L103.311 14.2184L101.265 17.6296L105.934 20.4563L105.484 21.2054L99.9902 17.8846Z" fill="white"/>
<path d="M106.711 22.0077L116.065 16.0674L117.387 17.1619L113.336 27.5069L112.559 26.864L113.643 24.1223L109.963 21.0619L107.488 22.6506L106.711 22.0077ZM110.724 20.5624L113.987 23.2722L116.424 17.1088L116.287 16.9919L110.724 20.5624Z" fill="white"/>
<path d="M114.669 28.9149L122.526 21.8907L123.166 22.6134L119.618 25.7854L119.74 25.9182L126.524 26.4017L127.423 27.4166L119.925 26.8056L119.687 34.5736L118.777 33.5481L119.047 26.5399L118.926 26.4071L115.314 29.6375L114.669 28.9149Z" fill="white"/>
<path d="M120.691 36.0561L129.485 30.2593L132.969 35.5991L132.24 36.0773L129.279 31.5451L125.99 33.7129L128.718 37.8892L127.988 38.3674L125.26 34.1911L121.945 36.3802L124.937 40.9603L124.208 41.4438L120.691 36.0561Z" fill="white"/>
<path d="M125.318 43.5266L134.831 39.0156L137.496 44.6955L136.708 45.0675L134.45 40.2643L130.892 41.9539L132.964 46.3639L132.176 46.7359L130.104 42.3258L125.731 44.398L125.318 43.5266Z" fill="white"/>
<path d="M128.697 51.3531L138.612 47.8357L138.934 48.7443L129.02 52.2617L128.697 51.3531Z" fill="white"/>
<path d="M129.992 55.0193L140.234 52.6283L141.165 56.6558C141.313 57.2934 141.334 57.8778 141.234 58.4145C141.133 58.9511 140.911 59.4028 140.568 59.78C140.229 60.1519 139.769 60.407 139.193 60.5451L139.045 60.577C138.352 60.7364 137.77 60.6992 137.3 60.4601C136.829 60.221 136.475 59.8863 136.248 59.4665L136.073 59.509C136.142 59.8544 136.099 60.1679 135.951 60.4495C135.803 60.7311 135.502 60.9277 135.053 61.0339L131.568 61.8469L131.351 60.9064L134.73 60.1201C135.042 60.0457 135.259 59.9075 135.386 59.695C135.513 59.4825 135.534 59.2062 135.454 58.8661L134.55 54.9555L130.204 55.9704L129.992 55.0193ZM135.401 54.7483L136.094 57.7503C136.269 58.5154 136.586 59.0627 137.035 59.3974C137.49 59.7322 138.045 59.8225 138.712 59.6631L138.786 59.6472C139.447 59.4931 139.912 59.169 140.171 58.6801C140.435 58.1913 140.472 57.5537 140.293 56.7674L139.6 53.7653L135.401 54.7483Z" fill="white"/>
<path d="M132.001 67.9784C131.959 67.2239 132.049 66.5438 132.276 65.9328C132.504 65.3218 132.884 64.833 133.408 64.461C133.931 64.0838 134.613 63.8712 135.454 63.8234L135.74 63.8075L135.798 64.7692L135.512 64.7851C134.545 64.8436 133.841 65.1677 133.408 65.7522C132.974 66.3366 132.784 67.0645 132.837 67.9253C132.89 68.7967 133.133 69.4608 133.566 69.9072C134 70.3535 134.529 70.5607 135.158 70.5235C135.576 70.4969 135.909 70.3747 136.152 70.1516C136.395 69.9284 136.58 69.6309 136.718 69.2536C136.85 68.8764 136.961 68.446 137.056 67.9572L137.241 66.9795C137.358 66.4004 137.516 65.8744 137.712 65.4068C137.908 64.9392 138.183 64.5673 138.532 64.2857C138.881 64.0041 139.341 63.8447 139.912 63.8075C140.483 63.7756 140.985 63.8925 141.424 64.1635C141.863 64.4345 142.207 64.8223 142.466 65.3324C142.725 65.8425 142.873 66.4429 142.91 67.1336C142.952 67.8243 142.868 68.4619 142.661 69.0305C142.455 69.6043 142.127 70.0666 141.683 70.4225C141.239 70.7785 140.663 70.9751 139.965 71.0176L139.261 71.0601L139.203 70.0984L139.906 70.0559C140.456 70.0241 140.895 69.8753 141.218 69.6149C141.546 69.3546 141.773 69.0145 141.91 68.5895C142.048 68.1697 142.101 67.7021 142.069 67.1867C142.027 66.4535 141.821 65.8584 141.456 65.4015C141.091 64.9445 140.594 64.7373 139.965 64.7745C139.547 64.8011 139.214 64.918 138.976 65.1305C138.738 65.343 138.553 65.6299 138.426 65.9966C138.299 66.3632 138.188 66.7883 138.098 67.2771L137.918 68.2547C137.823 68.8126 137.68 69.3333 137.49 69.8062C137.305 70.2791 137.03 70.6723 136.67 70.9751C136.311 71.278 135.83 71.448 135.216 71.4852C134.608 71.5224 134.069 71.4002 133.598 71.1239C133.133 70.8423 132.757 70.4385 132.477 69.8965C132.197 69.3546 132.044 68.7223 132.001 67.9784Z" fill="white"/>
<path d="M132.271 76.2353L141.895 76.8888L142.133 73.3661L143 73.4245L142.461 81.437L141.594 81.3785L141.832 77.8558L132.208 77.2023L132.271 76.2353Z" fill="white"/>
<path d="M137.77 87.9139L138.436 88.0999L138.082 89.3804L137.707 90.3421L137.834 90.4537L138.674 89.8427L139.822 89.1891L140.155 89.7842L139.007 90.4378L138.056 90.8469L138.087 91.0116L139.097 91.1869L140.372 91.5429L140.187 92.2124L138.912 91.8564L137.955 91.4792L137.844 91.6067L138.452 92.4515L139.097 93.6045L138.505 93.9392L137.855 92.7862L137.448 91.8298L137.284 91.8617L137.109 92.8766L136.755 94.1571L136.089 93.9711L136.443 92.6906L136.818 91.7289L136.691 91.6173L135.851 92.2283L134.703 92.8819L134.37 92.2868L135.518 91.6333L136.469 91.2241L136.438 91.0594L135.428 90.8841L134.153 90.5281L134.338 89.8586L135.613 90.2146L136.57 90.5918L136.681 90.4643L136.073 89.6195L135.422 88.4665L136.015 88.1318L136.665 89.2848L137.072 90.2465L137.236 90.2146L137.411 89.1944L137.77 87.9139Z" fill="white"/>
<path d="M127.195 97.7009L127.967 98.11L127.264 99.4437L135.011 103.577L135.714 102.244L136.486 102.653L134.038 107.281C133.757 107.812 133.408 108.237 132.991 108.551C132.573 108.864 132.129 109.045 131.658 109.093C131.182 109.14 130.717 109.045 130.257 108.795L130.151 108.737C129.718 108.503 129.406 108.232 129.21 107.908C129.014 107.589 128.903 107.265 128.872 106.941C128.84 106.617 128.85 106.319 128.898 106.048L128.739 105.963C128.565 106.165 128.332 106.346 128.036 106.505C127.745 106.659 127.412 106.749 127.042 106.76C126.672 106.776 126.27 106.664 125.836 106.431L125.704 106.362C125.202 106.091 124.832 105.74 124.599 105.299C124.366 104.863 124.266 104.38 124.298 103.859C124.329 103.333 124.488 102.807 124.768 102.276L127.195 97.7009ZM126.809 100.299L125.583 102.621C125.228 103.285 125.117 103.875 125.249 104.38C125.376 104.89 125.704 105.278 126.222 105.559L126.328 105.618C126.852 105.894 127.354 105.947 127.846 105.772C128.337 105.596 128.755 105.171 129.109 104.507L130.336 102.185L126.809 100.299ZM131.108 102.594L129.855 104.97C129.533 105.581 129.427 106.144 129.548 106.659C129.67 107.175 129.977 107.562 130.468 107.828L130.601 107.897C131.098 108.163 131.589 108.2 132.081 108.009C132.573 107.823 132.98 107.419 133.303 106.808L134.556 104.433L131.108 102.594Z" fill="white"/>
<path d="M121.977 107.058L130.358 113.439L127.872 116.739C127.481 117.259 127.047 117.652 126.572 117.918C126.096 118.184 125.609 118.301 125.102 118.279C124.599 118.258 124.113 118.067 123.642 117.706L123.521 117.615C122.955 117.185 122.611 116.707 122.495 116.191C122.378 115.671 122.405 115.187 122.579 114.741L122.437 114.629C122.215 114.905 121.95 115.076 121.638 115.139C121.326 115.203 120.988 115.097 120.618 114.82L117.768 112.653L118.349 111.882L121.115 113.986C121.368 114.183 121.617 114.257 121.86 114.22C122.103 114.183 122.326 114.023 122.542 113.742L124.954 110.543L121.395 107.839L121.977 107.058ZM125.652 111.064L123.801 113.519C123.33 114.146 123.113 114.741 123.145 115.304C123.182 115.867 123.468 116.356 124.012 116.765L124.07 116.808C124.615 117.222 125.154 117.371 125.699 117.259C126.244 117.148 126.757 116.77 127.238 116.128L129.089 113.673L125.652 111.064Z" fill="white"/>
<path d="M115.921 114.688L123.271 122.248L118.724 126.712L118.116 126.085L121.976 122.296L119.226 119.47L115.668 122.96L115.059 122.333L118.618 118.843L115.847 115.989L111.945 119.82L111.337 119.193L115.921 114.688Z" fill="white"/>
<path d="M110.248 120.192L113.606 130.787L112.215 131.791L103.273 125.24L104.088 124.65L106.451 126.398L110.327 123.593L109.423 120.787L110.248 120.192ZM110.623 124.459L107.186 126.951L112.506 130.877L112.654 130.771L110.623 124.459Z" fill="white"/>
<path d="M101.586 126.186L106.356 135.601L105.499 136.036L103.347 131.786L103.189 131.865L101.005 138.337L99.7992 138.953L102.29 131.823L94.8711 129.618L96.0873 128.996L102.766 131.037L102.924 130.952L100.73 126.621L101.586 126.186Z" fill="white"/>
<path d="M93.2064 130.213L96.5482 140.234L90.5203 142.264L90.2453 141.435L95.3585 139.713L94.1106 135.962L89.394 137.551L89.119 136.722L93.8356 135.133L92.5772 131.355L87.4058 133.098L87.1309 132.269L93.2064 130.213Z" fill="white"/>
<path d="M84.8193 132.811L86.7387 143.199L80.5944 144.346L80.4358 143.486L85.6336 142.519L84.9144 138.629L80.145 139.517L79.9863 138.656L84.7558 137.769L83.8728 132.992L84.8193 132.811Z" fill="white"/>
<path d="M76.4073 134.108L77.3749 144.628L76.4178 144.718L75.4502 134.198L76.4073 134.108Z" fill="white"/>
<path d="M72.5732 134.437L72.3035 145L68.1897 144.894C67.5393 144.878 66.9683 144.75 66.4765 144.516C65.9848 144.283 65.604 143.953 65.3291 143.528C65.0541 143.103 64.9219 142.593 64.9378 141.998L64.9431 141.849C64.959 141.132 65.144 140.579 65.4983 140.181C65.8473 139.782 66.2544 139.522 66.7197 139.405L66.725 139.224C66.3761 139.203 66.0799 139.086 65.8473 138.868C65.6146 138.651 65.4983 138.311 65.5142 137.848L65.604 134.256L66.5664 134.283L66.4765 137.769C66.4659 138.093 66.5505 138.337 66.7197 138.512C66.889 138.688 67.1533 138.778 67.5023 138.789L71.4945 138.89L71.6056 134.411L72.5732 134.437ZM71.4787 139.772L68.4171 139.692C67.6345 139.671 67.0264 139.841 66.5928 140.197C66.1593 140.553 65.9319 141.073 65.916 141.759V141.833C65.9002 142.519 66.0905 143.05 66.4977 143.427C66.9048 143.804 67.5076 144.006 68.306 144.022L71.3676 144.102L71.4787 139.772Z" fill="white"/>
<path d="M59.5448 133.13C60.2851 133.268 60.9196 133.518 61.4537 133.89C61.9877 134.257 62.3737 134.745 62.6064 135.346C62.8443 135.946 62.8866 136.663 62.7333 137.492L62.6804 137.774L61.7339 137.599L61.7868 137.317C61.9613 136.355 61.8185 135.595 61.3585 135.038C60.8932 134.474 60.2428 134.118 59.3968 133.964C58.5402 133.805 57.8422 133.885 57.3081 134.198C56.7741 134.512 56.4463 134.984 56.3352 135.606C56.2612 136.021 56.2982 136.377 56.4568 136.663C56.6155 136.95 56.8534 137.205 57.1865 137.429C57.5196 137.646 57.9109 137.859 58.3604 138.066L59.2646 138.481C59.7986 138.73 60.2692 139.012 60.6711 139.315C61.073 139.618 61.3691 139.974 61.5594 140.383C61.7498 140.792 61.7921 141.275 61.6916 141.844C61.5912 142.412 61.3532 142.869 60.9884 143.236C60.6235 143.597 60.1635 143.842 59.6083 143.969C59.0531 144.097 58.4397 144.097 57.7576 143.975C57.0755 143.847 56.4886 143.619 55.9809 143.279C55.4786 142.938 55.1085 142.513 54.8705 141.993C54.6326 141.472 54.5797 140.866 54.7066 140.176L54.8335 139.479L55.78 139.655L55.6531 140.351C55.5526 140.893 55.5896 141.355 55.7641 141.738C55.9386 142.115 56.2136 142.423 56.589 142.657C56.9644 142.891 57.4033 143.05 57.9057 143.146C58.6248 143.279 59.2487 143.22 59.7775 142.976C60.3063 142.731 60.6288 142.296 60.7398 141.674C60.8139 141.259 60.7821 140.909 60.6341 140.627C60.486 140.346 60.2534 140.096 59.9308 139.883C59.6083 139.671 59.2223 139.464 58.7675 139.256L57.8633 138.842C57.3452 138.613 56.8798 138.353 56.4621 138.056C56.0497 137.758 55.7377 137.402 55.5262 136.977C55.32 136.557 55.2671 136.042 55.3781 135.436C55.4892 134.83 55.7324 134.336 56.1184 133.943C56.4991 133.555 56.9856 133.289 57.5725 133.146C58.1595 133.003 58.8151 132.997 59.5448 133.13Z" fill="white"/>
<path d="M51.5705 131.302L48.4878 140.484L51.819 141.61L51.5388 142.439L43.9668 139.873L44.247 139.044L47.5783 140.17L50.661 130.989L51.5705 131.302Z" fill="white"/>
<path d="M45.5536 129.023L40.8158 138.459L35.2373 135.633L35.6286 134.852L40.3505 137.243L42.1219 133.709L37.7913 131.515L38.1825 130.734L42.5132 132.928L44.6917 128.587L45.5536 129.023Z" fill="white"/>
<path d="M38.1556 125.064L32.1647 133.752L26.9404 130.117L27.4375 129.4L31.8685 132.487L34.1105 129.235L30.0231 126.387L30.5202 125.67L34.6076 128.518L36.8654 125.24L32.3815 122.121L32.8785 121.404L38.1556 125.064Z" fill="white"/>
<path d="M28.6912 117.381C29.2411 117.897 29.6377 118.455 29.8862 119.055C30.1347 119.656 30.1982 120.272 30.0713 120.91C29.9444 121.542 29.5954 122.169 29.019 122.785L28.8234 122.992L28.1201 122.333L28.3158 122.126C28.982 121.414 29.2675 120.697 29.1829 119.974C29.0983 119.252 28.7388 118.593 28.1095 118.003C27.475 117.403 26.8458 117.089 26.2271 117.068C25.6085 117.041 25.0797 117.259 24.6461 117.722C24.3606 118.03 24.2019 118.348 24.1755 118.678C24.1491 119.007 24.2178 119.353 24.3764 119.719C24.5351 120.086 24.7519 120.474 25.0215 120.894L25.5556 121.733C25.8676 122.238 26.1161 122.727 26.2906 123.2C26.4651 123.672 26.5232 124.135 26.4598 124.581C26.4016 125.027 26.1742 125.463 25.783 125.877C25.3917 126.297 24.9475 126.558 24.4452 126.664C23.9428 126.77 23.4247 126.728 22.8906 126.531C22.3565 126.34 21.8383 126.005 21.3307 125.527C20.8284 125.054 20.453 124.533 20.215 123.975C19.9718 123.417 19.8925 122.854 19.9771 122.291C20.0617 121.728 20.3366 121.186 20.8178 120.67L21.299 120.155L22.0023 120.814L21.5211 121.329C21.1457 121.733 20.9289 122.142 20.8707 122.557C20.8125 122.971 20.8813 123.38 21.0716 123.779C21.262 124.177 21.5422 124.554 21.9177 124.905C22.4517 125.41 23.0069 125.702 23.5833 125.782C24.1596 125.861 24.662 125.67 25.0956 125.208C25.3811 124.9 25.5397 124.586 25.5715 124.268C25.5979 123.949 25.5344 123.614 25.3811 123.258C25.2225 122.902 25.011 122.514 24.7413 122.1L24.2019 121.26C23.89 120.787 23.6362 120.314 23.4511 119.836C23.2607 119.363 23.192 118.89 23.2449 118.423C23.2977 117.955 23.5304 117.498 23.9481 117.047C24.3659 116.6 24.8418 116.313 25.3705 116.197C25.8993 116.074 26.4492 116.117 27.0203 116.313C27.5966 116.521 28.1518 116.871 28.6912 117.381Z" fill="white"/>
<path d="M22.9646 111.51L15.4402 117.573L17.6399 120.33L16.9578 120.878L11.9609 114.613L12.643 114.066L14.8427 116.824L22.3671 110.766L22.9646 111.51Z" fill="white"/>
<path d="M19.1202 106.218L10.2633 111.919L9.74512 111.107L18.602 105.411L19.1202 106.218Z" fill="white"/>
<path d="M15.9207 100.687L7.99449 108.418L7.55032 107.509L15.0853 100.241L15.0059 100.076L4.6844 101.686L4.24023 100.777L15.1646 99.1356L15.9207 100.687Z" fill="white"/>
<path d="M13.5578 95.852L2.49597 95.8467L1.96191 94.2102L10.8875 87.6429L11.1995 88.6047L8.82532 90.3368L10.3112 94.9009L13.2458 94.8903L13.5578 95.852ZM9.39639 94.9115L8.07976 90.8681L2.7392 94.7628L2.79737 94.9328L9.39639 94.9115Z" fill="white"/>
<path d="M10.5278 85.7194L0.15863 87.4941L0 86.5377L9.50725 84.9118L8.5819 79.4338L9.43851 79.285L10.5278 85.7194Z" fill="white"/>
</svg>
